<svg width="96" height="91" viewBox="0 0 96 91" fill="none" xmlns="http://www.w3.org/2000/svg">
<path fill-rule="evenodd" clip-rule="evenodd" d="M18.422 40.5373C18.3878 39.4801 19.8041 39.1006 20.3032 40.0332L24.0265 46.9921L29.1141 41.5932C29.8432 40.8194 31.1217 41.5478 30.8073 42.5578L29.1218 47.9715C37.9956 45.7397 46.038 53.9026 43.6129 62.7758L39.8275 76.6254C37.4061 85.4848 26.3361 88.451 19.8094 81.9892L9.6064 71.8878C3.11616 65.4621 5.91241 54.4833 14.5666 51.8762L10.3962 48.027C9.61886 47.3095 10.3619 46.0395 11.3802 46.345L18.6804 48.5352L18.422 40.5373ZM20.818 63.9113C21.885 63.6254 22.5181 62.5287 22.2323 61.4618C21.9464 60.3948 20.8497 59.7617 19.7828 60.0476C18.7158 60.3334 18.0827 61.4301 18.3686 62.497C18.6544 63.564 19.7511 64.1971 20.818 63.9113ZM31.8915 58.8736C32.1774 59.9405 31.5442 61.0372 30.4773 61.3231C29.4104 61.609 28.3137 60.9758 28.0278 59.9089C27.7419 58.8419 28.3751 57.7453 29.442 57.4594C30.509 57.1735 31.6056 57.8066 31.8915 58.8736ZM25.801 78.7028C26.868 78.4169 27.5011 77.3202 27.2152 76.2533C26.9294 75.1864 25.8327 74.5532 24.7658 74.8391C23.6988 75.125 23.0657 76.2217 23.3515 77.2886C23.6374 78.3555 24.7341 78.9887 25.801 78.7028ZM34.9426 74.1828C35.2285 75.2497 34.5954 76.3464 33.5284 76.6323C32.4615 76.9181 31.3648 76.285 31.0789 75.218C30.7931 74.1511 31.4262 73.0544 32.4932 72.7685C33.5601 72.4827 34.6568 73.1158 34.9426 74.1828ZM17.8988 72.7569C18.9657 72.471 19.5989 71.3743 19.313 70.3074C19.0271 69.2405 17.9304 68.6073 16.8635 68.8932C15.7966 69.1791 15.1634 70.2757 15.4493 71.3427C15.7352 72.4096 16.8319 73.0428 17.8988 72.7569ZM28.9723 67.7192C29.2581 68.7861 28.625 69.8828 27.558 70.1687C26.4911 70.4546 25.3944 69.8214 25.1086 68.7545C24.8227 67.6875 25.4558 66.5909 26.5228 66.305C27.5897 66.0191 28.6864 66.6523 28.9723 67.7192ZM37.2173 67.5805C38.2842 67.2946 38.9174 66.1979 38.6315 65.131C38.3456 64.0641 37.249 63.4309 36.182 63.7168C35.1151 64.0027 34.4819 65.0994 34.7678 66.1663C35.0537 67.2332 36.1504 67.8664 37.2173 67.5805Z" fill="#CC0829"/>
<path fill-rule="evenodd" clip-rule="evenodd" d="M95.4401 23.6365C95.4401 36.6906 84.8577 47.273 71.8036 47.273C58.7495 47.273 48.1671 36.6906 48.1671 23.6365C48.1671 10.5824 58.7495 0 71.8036 0C84.8577 0 95.4401 10.5824 95.4401 23.6365ZM68.8571 10.6907L70.4449 27.2648C70.4556 27.4148 70.4857 27.5605 70.533 27.6987C70.6085 27.9205 70.7273 28.1191 70.878 28.2846C71.0241 28.4456 71.2017 28.577 71.4029 28.6672C71.532 28.7254 71.6694 28.7661 71.8122 28.7868L81.7697 30.508C82.6371 30.6579 83.4566 30.0455 83.6002 29.1402C83.7439 28.2349 83.1572 27.3794 82.2899 27.2295L73.4955 25.7094L72.0249 10.3601C71.9375 9.44699 71.1574 8.7808 70.2826 8.87211C69.4078 8.96342 68.7696 9.77764 68.8571 10.6907Z" fill="#CC0829"/>
</svg>
