<svg width="131" height="40" viewBox="0 0 131 40" fill="none" xmlns="http://www.w3.org/2000/svg">
<g clip-path="url(#clip0_109_366)">
<path d="M7.91782 39.9979C7.59923 39.9979 7.28831 39.9938 6.97222 39.9867C6.31739 39.9782 5.66408 39.9212 5.01766 39.8162C4.41491 39.7123 3.83101 39.5192 3.28522 39.2432C2.74443 38.9695 2.25118 38.6106 1.82438 38.1802C1.39139 37.7548 1.03092 37.2616 0.757231 36.7198C0.480529 36.1746 0.289034 35.5902 0.189418 34.9869C0.0818409 34.3387 0.0236373 33.6833 0.015309 33.0262C0.00867934 32.8057 0 32.0714 0 32.0714V7.91523C0 7.91523 0.00924401 7.19223 0.0153613 6.97982C0.0233362 6.32383 0.0811977 5.66941 0.188445 5.0222C0.288253 4.41728 0.479899 3.83117 0.756751 3.28415C1.02943 2.74281 1.3879 2.24915 1.81827 1.82232C2.24817 1.39142 2.74299 1.03064 3.2847 0.753122C3.82924 0.477982 4.41205 0.286242 5.01358 0.184325C5.66211 0.0782556 6.31769 0.0209095 6.9748 0.012768L7.91835 0H122.539L123.494 0.0132803C124.145 0.0210177 124.795 0.0778522 125.438 0.1833C126.045 0.286495 126.634 0.479573 127.185 0.756185C128.27 1.31547 129.153 2.20032 129.71 3.2867C129.983 3.82995 130.171 4.41128 130.27 5.01097C130.378 5.66348 130.439 6.32306 130.452 6.98442C130.454 7.28056 130.454 7.59866 130.454 7.91523C130.463 8.30737 130.463 8.68058 130.463 9.05692V30.942C130.463 31.3218 130.463 31.6926 130.454 32.0663C130.454 32.4063 130.454 32.7178 130.45 33.0385C130.438 33.6881 130.378 34.3358 130.272 34.9767C130.174 35.5843 129.983 36.1732 129.707 36.723C129.432 37.2588 129.073 37.7478 128.645 38.172C128.218 38.6047 127.723 38.9657 127.182 39.2412C126.633 39.5194 126.044 39.7132 125.438 39.8162C124.791 39.9217 124.138 39.9787 123.483 39.9867C123.177 39.9938 122.856 39.9979 122.544 39.9979L121.411 40L7.91782 39.9979Z" fill="#FFEDE6"/>
<path d="M24.9909 20.3134C25.0022 19.4406 25.234 18.5848 25.6649 17.8257C26.0957 17.0665 26.7116 16.4287 27.4552 15.9716C26.9828 15.297 26.3596 14.7417 25.6351 14.35C24.9106 13.9584 24.1048 13.741 23.2816 13.7153C21.5256 13.531 19.8233 14.766 18.9285 14.766C18.0164 14.766 16.6387 13.7336 15.1551 13.7641C14.1955 13.7951 13.2603 14.0742 12.4406 14.5741C11.6208 15.074 10.9446 15.7777 10.4778 16.6166C8.45535 20.1181 9.96393 25.264 11.9012 28.0943C12.8704 29.4802 14.0032 31.0283 15.4854 30.9734C16.9359 30.9133 17.4776 30.0485 19.2284 30.0485C20.9629 30.0485 21.4712 30.9735 22.9835 30.9385C24.5399 30.9133 25.5205 29.5464 26.4558 28.1474C27.1521 27.1599 27.688 26.0685 28.0435 24.9136C27.1393 24.5311 26.3677 23.891 25.8249 23.073C25.282 22.2549 24.9919 21.2951 24.9909 20.3134Z" fill="#CC0829"/>
<path d="M22.1344 11.8539C22.983 10.8351 23.4011 9.52573 23.2998 8.20374C22.0033 8.33989 20.8057 8.95956 19.9457 9.93923C19.5252 10.4177 19.2031 10.9746 18.9979 11.5776C18.7927 12.1808 18.7083 12.8185 18.7497 13.4541C19.3982 13.4609 20.0397 13.3203 20.626 13.0431C21.2122 12.7659 21.728 12.3593 22.1344 11.8539Z" fill="#CC0829"/>
<path d="M36.3718 14.4585V9.10079H34.4089V8.21899H39.2994V9.10079H37.3408V14.4585H36.3718Z" fill="#CC0829"/>
<path d="M43.806 13.1871C43.6797 13.6175 43.4062 13.9897 43.0332 14.2387C42.6602 14.4877 42.2115 14.5977 41.7657 14.5494C41.4554 14.5576 41.1471 14.4982 40.8622 14.3752C40.5773 14.2523 40.3224 14.0689 40.1155 13.8377C39.9085 13.6064 39.7543 13.3329 39.6637 13.0361C39.5731 12.7393 39.5481 12.4263 39.5905 12.1189C39.5492 11.8106 39.5746 11.4969 39.6651 11.1992C39.7555 10.9016 39.9088 10.6268 40.1147 10.3936C40.3206 10.1602 40.5742 9.974 40.8583 9.84725C41.1424 9.7205 41.4504 9.65625 41.7616 9.65891C43.0718 9.65891 43.8622 10.554 43.8622 12.0327V12.3568H40.5372V12.4089C40.5226 12.5817 40.5443 12.7557 40.6009 12.9196C40.6575 13.0835 40.7478 13.2337 40.8658 13.3607C40.9838 13.4877 41.1272 13.5887 41.2865 13.6571C41.4458 13.7255 41.6178 13.7598 41.7912 13.7579C42.0134 13.7846 42.2387 13.7446 42.4381 13.6429C42.6376 13.5412 42.8023 13.3826 42.9114 13.1871H43.806ZM40.5371 11.6697H42.9155C42.9272 11.5116 42.9058 11.3528 42.8524 11.2036C42.7992 11.0544 42.7153 10.9179 42.6061 10.8031C42.4969 10.6882 42.3649 10.5974 42.2186 10.5366C42.0723 10.4757 41.9148 10.4462 41.7564 10.4498C41.5958 10.4478 41.4363 10.478 41.2873 10.5386C41.1384 10.5992 41.0032 10.6889 40.8896 10.8026C40.7759 10.9163 40.6863 11.0516 40.6257 11.2005C40.5652 11.3494 40.535 11.5089 40.5371 11.6697ZM41.2029 8.9625L42.2885 7.4751H43.3781L42.1628 8.9625H41.2029Z" fill="#CC0829"/>
<path d="M45.1529 7.91162H46.0821V14.4585H45.1529V7.91162Z" fill="#CC0829"/>
<path d="M51.5895 13.1871C51.4632 13.6175 51.1896 13.9897 50.8166 14.2387C50.4436 14.4877 49.995 14.5977 49.5491 14.5494C49.2389 14.5576 48.9306 14.4982 48.6456 14.3752C48.3607 14.2523 48.1059 14.0689 47.899 13.8377C47.692 13.6064 47.5379 13.3329 47.4472 13.0361C47.3565 12.7393 47.3315 12.4263 47.374 12.1189C47.3327 11.8106 47.3581 11.4969 47.4485 11.1992C47.539 10.9016 47.6923 10.6268 47.8982 10.3936C48.104 10.1602 48.3576 9.974 48.6418 9.84725C48.9259 9.7205 49.234 9.65625 49.545 9.65891C50.8552 9.65891 51.6456 10.554 51.6456 12.0327V12.3568H48.3206V12.4089C48.306 12.5817 48.3278 12.7557 48.3844 12.9196C48.441 13.0835 48.5312 13.2337 48.6493 13.3607C48.7673 13.4877 48.9106 13.5887 49.07 13.6571C49.2294 13.7255 49.4012 13.7598 49.5746 13.7579C49.7969 13.7846 50.0221 13.7446 50.2216 13.6429C50.421 13.5412 50.5858 13.3826 50.6949 13.1871H51.5895ZM48.3206 11.6697H50.699C50.7106 11.5116 50.6892 11.3528 50.6359 11.2036C50.5826 11.0544 50.4987 10.9179 50.3895 10.8031C50.2804 10.6882 50.1484 10.5974 50.002 10.5366C49.8558 10.4757 49.6983 10.4462 49.5399 10.4498C49.3792 10.4478 49.2196 10.478 49.0708 10.5386C48.9219 10.5992 48.7867 10.6889 48.673 10.8027C48.5594 10.9163 48.4697 11.0516 48.4091 11.2005C48.3486 11.3494 48.3185 11.5089 48.3206 11.6697ZM48.9864 8.9625L50.072 7.4751H51.1615L49.9464 8.9625H48.9864Z" fill="#CC0829"/>
<path d="M55.9765 11.2888C55.9173 11.0446 55.7725 10.8297 55.5685 10.683C55.3645 10.5364 55.1148 10.4675 54.8645 10.4891C54.0863 10.4891 53.6104 11.0855 53.6104 12.0889C53.6104 13.1095 54.0905 13.7192 54.8645 13.7192C55.1124 13.7479 55.3621 13.6851 55.5669 13.5425C55.7717 13.4 55.9174 13.1875 55.9765 12.9451H56.8803C56.8205 13.422 56.5769 13.8565 56.2012 14.1562C55.8256 14.456 55.3478 14.597 54.8696 14.5495C54.5547 14.5594 54.2415 14.5004 53.9519 14.3766C53.6621 14.2529 53.403 14.0674 53.1925 13.833C52.982 13.5986 52.8253 13.3211 52.7333 13.0199C52.6413 12.7186 52.6161 12.4009 52.6597 12.0889C52.6184 11.7792 52.645 11.4642 52.7379 11.166C52.8309 10.8676 52.9878 10.5932 53.1977 10.3619C53.4077 10.1305 53.6656 9.94771 53.9535 9.8263C54.2414 9.70488 54.5522 9.6478 54.8645 9.65896C55.3465 9.61455 55.8269 9.76005 56.2034 10.0645C56.58 10.3688 56.8228 10.8081 56.8803 11.2888H55.9765Z" fill="#CC0829"/>
<path d="M58.1139 7.91162H59.0349V10.5065H59.1085C59.232 10.2353 59.4362 10.0088 59.6931 9.8579C59.95 9.7069 60.2472 9.6389 60.5443 9.66298C60.7722 9.65056 61 9.68865 61.2115 9.7744C61.423 9.86023 61.613 9.99165 61.7679 10.1593C61.9228 10.327 62.0388 10.5267 62.1076 10.7444C62.1764 10.962 62.1963 11.1921 62.1659 11.4184V14.4585H61.2356V11.6476C61.2356 10.8956 60.8853 10.5146 60.2287 10.5146C60.0689 10.5016 59.9084 10.5235 59.7579 10.579C59.6076 10.6345 59.4712 10.7221 59.3583 10.8358C59.2453 10.9495 59.1586 11.0865 59.1042 11.2372C59.0498 11.388 59.0289 11.5487 59.0431 11.7084V14.4585H58.1138L58.1139 7.91162Z" fill="#CC0829"/>
<path d="M63.3341 13.1269C63.3341 12.2793 63.9653 11.7907 65.0854 11.7212L66.3609 11.6477V11.2413C66.3609 10.7439 66.0321 10.4631 65.3969 10.4631C64.8782 10.4631 64.5187 10.6535 64.4156 10.9864H63.5159C63.6109 10.1777 64.3717 9.65894 65.4399 9.65894C66.6204 9.65894 67.2856 10.2466 67.2856 11.2413V14.4585H66.3915V13.7968H66.3181C66.1689 14.0341 65.9593 14.2277 65.7108 14.3575C65.4624 14.4874 65.1839 14.549 64.9038 14.5361C64.706 14.5567 64.5063 14.5355 64.3173 14.4742C64.1282 14.4128 63.9542 14.3125 63.8063 14.1797C63.6584 14.0469 63.5399 13.8847 63.4587 13.7034C63.3774 13.522 63.3349 13.3256 63.3341 13.1269ZM66.3609 12.7245V12.3309L65.2111 12.4044C64.5626 12.4478 64.2685 12.6684 64.2685 13.0834C64.2685 13.5073 64.6362 13.7539 65.1417 13.7539C65.2898 13.7689 65.4394 13.7539 65.5816 13.7099C65.7239 13.6659 65.8558 13.5937 65.9695 13.4977C66.0833 13.4017 66.1766 13.2837 66.2438 13.1509C66.311 13.018 66.3509 12.8731 66.3609 12.7245Z" fill="#CC0829"/>
<path d="M68.7408 9.7498H69.6354V10.4718H69.7048C69.805 10.2212 69.982 10.0087 70.2104 9.86497C70.4388 9.72122 70.7069 9.65355 70.9763 9.67172C71.1154 9.6698 71.2544 9.68289 71.3908 9.71055V10.6276C71.2203 10.5911 71.0464 10.5723 70.8721 10.5715C70.7188 10.5576 70.5643 10.5761 70.4186 10.6256C70.2729 10.6751 70.1392 10.7545 70.0259 10.8587C69.9128 10.963 69.8227 11.0898 69.7613 11.2309C69.7001 11.3721 69.669 11.5245 69.6701 11.6784V14.4586H68.7408V9.7498Z" fill="#CC0829"/>
<path d="M72.2455 14.9297H73.1963C73.2749 15.2713 73.6681 15.4919 74.2951 15.4919C75.0691 15.4919 75.5277 15.1243 75.5277 14.5019V13.5981H75.4582C75.3124 13.8511 75.0996 14.0589 74.8431 14.1984C74.5867 14.338 74.2966 14.404 74.005 14.3891C72.8031 14.3891 72.0597 13.4597 72.0597 12.05C72.0597 10.6142 72.8113 9.67164 74.0143 9.67164C74.3131 9.66123 74.6091 9.73314 74.8699 9.87956C75.1307 10.026 75.3462 10.2413 75.4929 10.5019H75.5664V9.74973H76.4569V14.4972C76.4569 15.5741 75.6134 16.2572 74.2818 16.2572C73.1054 16.2573 72.3446 15.7298 72.2455 14.9297ZM75.545 12.0454C75.545 11.1074 75.0599 10.5065 74.2685 10.5065C73.4689 10.5065 73.0196 11.1075 73.0196 12.0454C73.0196 12.9839 73.4689 13.5848 74.2685 13.5848C75.065 13.5848 75.545 12.9885 75.545 12.0454Z" fill="#CC0829"/>
<path d="M81.9193 13.1871C81.793 13.6174 81.5194 13.9896 81.1465 14.2387C80.7735 14.4877 80.3248 14.5977 79.8789 14.5493C79.5688 14.5576 79.2604 14.4981 78.9755 14.3752C78.6905 14.2523 78.4358 14.0689 78.2288 13.8376C78.0218 13.6064 77.8677 13.3329 77.777 13.0361C77.6863 12.7393 77.6613 12.4263 77.7038 12.1189C77.6625 11.8106 77.6879 11.4969 77.7783 11.1992C77.8688 10.9016 78.0222 10.6268 78.228 10.3935C78.4338 10.1602 78.6874 9.97389 78.9716 9.84714C79.2557 9.72048 79.5638 9.65623 79.8748 9.65889C81.185 9.65889 81.9754 10.554 81.9754 12.0326V12.3568H78.6504V12.4089C78.6359 12.5817 78.6576 12.7556 78.7142 12.9196C78.7708 13.0835 78.861 13.2337 78.9791 13.3607C79.0972 13.4877 79.2405 13.5886 79.3998 13.6571C79.5592 13.7255 79.7311 13.7598 79.9045 13.7579C80.1268 13.7846 80.352 13.7445 80.5514 13.6429C80.7509 13.5412 80.9157 13.3826 81.0248 13.187L81.9193 13.1871ZM78.6504 11.6696H81.0288C81.0405 11.5116 81.019 11.3528 80.9658 11.2036C80.9124 11.0543 80.8285 10.9179 80.7193 10.8031C80.6102 10.6881 80.4783 10.5974 80.3319 10.5366C80.1856 10.4757 80.0282 10.4461 79.8697 10.4498C79.709 10.4478 79.5495 10.478 79.4006 10.5386C79.2518 10.5991 79.1165 10.6889 79.0028 10.8026C78.8893 10.9163 78.7995 11.0516 78.739 11.2005C78.6785 11.3494 78.6483 11.5089 78.6504 11.6696Z" fill="#CC0829"/>
<path d="M83.2233 9.7498H84.1183V10.4718H84.1875C84.2875 10.2212 84.4642 10.0087 84.6933 9.86497C84.9217 9.72122 85.1892 9.65355 85.4592 9.67172C85.5983 9.6698 85.7367 9.68289 85.8733 9.71055V10.6276C85.7025 10.5911 85.5292 10.5723 85.355 10.5715C85.2017 10.5576 85.0467 10.5761 84.9008 10.6256C84.7558 10.6751 84.6217 10.7545 84.5083 10.8587C84.395 10.963 84.305 11.0897 84.2442 11.2309C84.1825 11.3721 84.1517 11.5245 84.1525 11.6784V14.4586H83.2233V9.7498Z" fill="#CC0829"/>
<path d="M89.2217 12.1021C89.2217 10.6142 89.9867 9.67165 91.1767 9.67165C91.4709 9.65806 91.7625 9.72856 92.0184 9.87481C92.2742 10.0211 92.4825 10.2371 92.62 10.4977H92.69V7.91162H93.6192V14.4585H92.7284V13.7145H92.655C92.5067 13.9733 92.2909 14.1866 92.03 14.3315C91.7692 14.4763 91.4742 14.5471 91.1767 14.5361C89.9784 14.5361 89.2217 13.5935 89.2217 12.1021ZM90.1817 12.1021C90.1817 13.1008 90.6525 13.7017 91.44 13.7017C92.2234 13.7017 92.7075 13.0921 92.7075 12.1061C92.7075 11.1248 92.2184 10.5065 91.44 10.5065C90.6575 10.5065 90.1817 11.1116 90.1817 12.1021Z" fill="#CC0829"/>
<path d="M94.875 13.1269C94.875 12.2793 95.5059 11.7907 96.6267 11.7212L97.9017 11.6477V11.2413C97.9017 10.7439 97.5734 10.4631 96.9375 10.4631C96.4192 10.4631 96.06 10.6535 95.9567 10.9864H95.0567C95.1517 10.1777 95.9125 9.65894 96.9809 9.65894C98.1617 9.65894 98.8275 10.2466 98.8275 11.2413V14.4585H97.9325V13.7968H97.8592C97.71 14.0341 97.5 14.2277 97.2517 14.3575C97.0034 14.4874 96.725 14.549 96.445 14.5361C96.2467 14.5567 96.0475 14.5355 95.8584 14.4742C95.6692 14.4128 95.495 14.3125 95.3475 14.1797C95.1992 14.0469 95.0809 13.8847 95 13.7034C94.9184 13.5219 94.8759 13.3256 94.875 13.1269ZM97.9017 12.7245V12.3309L96.7517 12.4044C96.1034 12.4478 95.8092 12.6684 95.8092 13.0834C95.8092 13.5073 96.1775 13.7539 96.6825 13.7539C96.8309 13.7689 96.98 13.7539 97.1225 13.7099C97.265 13.6659 97.3967 13.5937 97.5109 13.4977C97.6242 13.4016 97.7175 13.2837 97.785 13.1509C97.8517 13.018 97.8917 12.873 97.9017 12.7245Z" fill="#CC0829"/>
<path d="M100.283 9.74984H101.177V10.4978H101.247C101.364 10.2292 101.563 10.0039 101.815 9.85359C102.067 9.70318 102.359 9.63518 102.652 9.65893C102.881 9.64168 103.111 9.67626 103.324 9.76001C103.538 9.84376 103.731 9.97459 103.888 10.1428C104.044 10.3109 104.161 10.5122 104.229 10.7316C104.297 10.951 104.315 11.183 104.282 11.4103V14.4584H103.352V11.6436C103.352 10.8869 103.023 10.5106 102.336 10.5106C102.18 10.5033 102.025 10.5298 101.881 10.5882C101.737 10.6466 101.607 10.7355 101.499 10.8488C101.393 10.9622 101.312 11.0973 101.262 11.2448C101.213 11.3924 101.195 11.549 101.212 11.7038V14.4585H100.283V9.74984Z" fill="#CC0829"/>
<path d="M107.44 9.65894C108.499 9.65894 109.191 10.1516 109.282 10.9819H108.391C108.305 10.6362 107.967 10.4156 107.44 10.4156C106.921 10.4156 106.527 10.6618 106.527 11.0294C106.527 11.3107 106.765 11.4879 107.276 11.6048L108.058 11.786C108.953 11.9939 109.373 12.3789 109.373 13.0707C109.373 13.9571 108.547 14.5494 107.423 14.5494C106.303 14.5494 105.572 14.0434 105.489 13.2091H106.42C106.5 13.4077 106.644 13.5735 106.83 13.6801C107.016 13.7867 107.232 13.8278 107.444 13.7968C108.023 13.7968 108.434 13.5374 108.434 13.1611C108.434 12.8803 108.214 12.6985 107.742 12.5862L106.921 12.3957C106.026 12.1838 105.611 11.7819 105.611 11.0814C105.611 10.2466 106.376 9.65894 107.44 9.65894Z" fill="#CC0829"/>
<path d="M35.8937 17.9775H37.8381V30.9635H35.8937V17.9775Z" fill="#CC0829"/>
<path d="M40.1808 22.7291L41.2428 17.9775H43.132L41.8453 22.7291H40.1808Z" fill="#CC0829"/>
<path d="M50.4794 27.4536H45.5297L44.3411 30.9635H42.2446L46.9328 17.9775H49.1111L53.7993 30.9635H51.6671L50.4794 27.4536ZM46.0424 25.834H49.9658L48.0317 20.1374H47.9776L46.0424 25.834Z" fill="#CC0829"/>
<path d="M63.9233 26.2302C63.9233 29.1723 62.3487 31.0625 59.9723 31.0625C59.3704 31.094 58.7717 30.9553 58.2449 30.6624C57.7181 30.3695 57.2844 29.9341 56.9936 29.4061H56.9486V34.0954H55.0052V21.4955H56.8863V23.0702H56.922C57.2262 22.5447 57.6672 22.1116 58.1981 21.8169C58.7289 21.5222 59.3297 21.3768 59.9366 21.3964C62.3395 21.3964 63.9233 23.2958 63.9233 26.2302ZM61.9259 26.2302C61.9259 24.313 60.9353 23.0528 59.424 23.0528C57.9392 23.0528 56.9404 24.3395 56.9404 26.2302C56.9404 28.1378 57.9392 29.4153 59.424 29.4153C60.9353 29.4153 61.9259 28.1644 61.9259 26.2302Z" fill="#CC0829"/>
<path d="M74.3431 26.2302C74.3431 29.1723 72.7684 31.0625 70.3921 31.0625C69.7902 31.094 69.1915 30.9553 68.6647 30.6624C68.1378 30.3695 67.7042 29.9341 67.4134 29.4061H67.3684V34.0954H65.4256V21.4955H67.3061V23.0702H67.3419C67.6461 22.5447 68.0871 22.1116 68.6179 21.8169C69.1488 21.5222 69.7495 21.3768 70.3563 21.3964C72.7593 21.3964 74.3431 23.2958 74.3431 26.2302ZM72.3457 26.2302C72.3457 24.313 71.3551 23.0528 69.8438 23.0528C68.3589 23.0528 67.3602 24.3395 67.3602 26.2302C67.3602 28.1378 68.3589 29.4153 69.8438 29.4153C71.3551 29.4153 72.3457 28.1644 72.3457 26.2302Z" fill="#CC0829"/>
<path d="M81.2301 27.3454C81.374 28.6331 82.625 29.4786 84.3342 29.4786C85.9726 29.4786 87.1509 28.6331 87.1509 27.472C87.1509 26.4641 86.4401 25.8606 84.7576 25.4469L83.0743 25.041C80.6898 24.4651 79.5828 23.35 79.5828 21.5404C79.5828 19.2999 81.5353 17.761 84.3076 17.761C87.0517 17.761 88.9326 19.2999 88.9959 21.5404H87.0342C86.9167 20.2446 85.8459 19.4623 84.2801 19.4623C82.7148 19.4623 81.6436 20.2537 81.6436 21.4057C81.6436 22.3237 82.3278 22.8639 84.0017 23.2774L85.4326 23.6287C88.0967 24.2588 89.2034 25.3295 89.2034 27.2289C89.2034 29.6583 87.2684 31.1799 84.1901 31.1799C81.3106 31.1799 79.3663 29.6941 79.2407 27.3453L81.2301 27.3454Z" fill="#CC0829"/>
<path d="M93.3984 19.255V21.4955H95.1992V23.0344H93.3984V28.2543C93.3984 29.065 93.7592 29.4429 94.55 29.4429C94.7642 29.4392 94.9775 29.4242 95.19 29.3979V30.9277C94.8342 30.9942 94.4725 31.0243 94.11 31.0175C92.1934 31.0175 91.4459 30.2976 91.4459 28.4615V23.0344H90.0692V21.4955H91.4459V19.255H93.3984Z" fill="#CC0829"/>
<path d="M96.24 26.2302C96.24 23.2509 97.995 21.379 100.731 21.379C103.476 21.379 105.222 23.2509 105.222 26.2302C105.222 29.2172 103.485 31.0809 100.731 31.0809C97.9775 31.0809 96.24 29.2172 96.24 26.2302ZM103.242 26.2302C103.242 24.1863 102.305 22.9803 100.731 22.9803C99.1559 22.9803 98.2209 24.1954 98.2209 26.2302C98.2209 28.2818 99.1559 29.4786 100.731 29.4786C102.305 29.4786 103.242 28.2818 103.242 26.2302Z" fill="#CC0829"/>
<path d="M106.824 21.4955H108.678V23.1069H108.723C108.848 22.6037 109.143 22.1588 109.558 21.8473C109.972 21.5358 110.482 21.3767 111 21.3964C111.223 21.3957 111.447 21.42 111.666 21.4689V23.2866C111.383 23.2002 111.088 23.1606 110.793 23.1692C110.51 23.1577 110.228 23.2076 109.968 23.3152C109.706 23.4228 109.471 23.5857 109.278 23.7927C109.086 23.9997 108.941 24.2458 108.853 24.5143C108.764 24.7827 108.735 25.0672 108.768 25.3479V30.9634H106.824V21.4955Z" fill="#CC0829"/>
<path d="M120.624 28.1827C120.363 29.9014 118.689 31.0809 116.548 31.0809C113.793 31.0809 112.084 29.2355 112.084 26.2751C112.084 23.305 113.803 21.379 116.466 21.379C119.085 21.379 120.733 23.1784 120.733 26.0494V26.7153H114.046V26.8327C114.015 27.1811 114.058 27.5321 114.174 27.8624C114.289 28.1927 114.473 28.4947 114.714 28.7483C114.955 29.0019 115.247 29.2014 115.571 29.3334C115.895 29.4655 116.243 29.5272 116.593 29.5144C117.052 29.5574 117.513 29.451 117.907 29.2111C118.301 28.9712 118.607 28.6104 118.779 28.1827H120.624ZM114.055 25.357H118.788C118.806 25.0438 118.758 24.7302 118.649 24.4361C118.539 24.1419 118.37 23.8736 118.153 23.6479C117.934 23.4223 117.672 23.2441 117.382 23.1246C117.092 23.0052 116.78 22.9469 116.466 22.9537C116.149 22.9519 115.836 23.0127 115.543 23.1327C115.25 23.2527 114.984 23.4295 114.76 23.653C114.536 23.8764 114.358 24.142 114.237 24.4345C114.116 24.727 114.054 25.0405 114.055 25.357Z" fill="#CC0829"/>
</g>
<defs>
<clipPath id="clip0_109_366">
<rect width="130.833" height="40" fill="white"/>
</clipPath>
</defs>
</svg>
