<svg width="80" height="91" viewBox="0 0 80 91" fill="none" xmlns="http://www.w3.org/2000/svg">
<circle cx="40" cy="43" r="40" fill="#FFEDE6"/>
<path fill-rule="evenodd" clip-rule="evenodd" d="M61.0596 17.5471C59.5709 19.6782 58.1414 22.8402 57.1534 26.5276C56.1662 30.2116 54.873 39.9172 53.8223 48.7742C53.517 51.3474 53.233 53.8413 52.9839 56.0833L54.424 56.4692C55.3292 54.4029 56.3302 52.1012 57.3524 49.7201C60.8709 41.5244 64.6038 32.4724 65.5909 28.7884C66.579 25.101 66.9219 21.6479 66.6982 19.058C66.6632 18.6518 66.6145 18.2709 66.5533 17.9165C65.8469 17.4659 65.0772 17.1214 64.2545 16.9009C63.4318 16.6805 62.593 16.594 61.7559 16.6311C61.5257 16.9073 61.2931 17.2129 61.0596 17.5471ZM56.156 56.9333L55.1352 56.6597C59.1468 47.5007 65.0021 33.7987 66.2941 28.9768C67.3595 25.0005 67.6976 21.2574 67.3742 18.5106C70.6739 21.2016 72.2561 26.4138 70.8002 31.8474C70.3472 33.5381 68.8909 36.4433 66.8957 39.9211C64.9165 43.3712 62.4535 47.3069 60.0459 51.0256C58.6989 53.106 57.3707 55.1164 56.156 56.9333ZM56.8694 57.1759C62.4269 48.8568 70.2791 36.6046 71.5033 32.0358C73.0962 26.0911 71.2083 20.2117 67.2111 17.474C66.8369 15.616 66.0932 14.3791 65.0081 14.0884C63.923 13.7976 62.6605 14.4969 61.4074 15.9189C56.5769 16.2913 52.0023 20.439 50.4094 26.3837C49.1852 30.9525 49.8593 45.4893 50.5127 55.4726C49.8703 55.4731 49.2825 55.9019 49.1083 56.5521L41.5722 84.6773C41.3641 85.454 41.825 86.2523 42.6016 86.4604L48.2267 87.9676C49.0033 88.1757 49.8017 87.7148 50.0098 86.9381L57.5459 58.8129C57.7201 58.1628 57.4255 57.4975 56.8694 57.1759ZM51.2518 55.6192C51.1083 53.4385 50.9632 51.0332 50.8369 48.5581C50.6112 44.1338 50.4461 39.4938 50.4571 35.5164C50.4681 31.5069 50.6595 28.2629 51.1125 26.5721C52.5684 21.1385 56.5447 17.4157 60.7479 16.7351C59.0945 18.9522 57.5157 22.3628 56.4502 26.3392C55.1582 31.161 53.378 45.9549 52.2726 55.8927L51.2518 55.6192ZM63.2177 15.2421C62.9634 15.4162 62.7 15.6349 62.4306 15.8971C63.1026 15.9205 63.7757 16.019 64.4429 16.1978C65.1101 16.3765 65.7423 16.6279 66.3359 16.9436C66.2337 16.5817 66.115 16.2606 65.9818 15.9828C65.6272 15.2432 65.2165 14.8978 64.8197 14.7915C64.4229 14.6852 63.8945 14.7789 63.2177 15.2421Z" fill="#CC0829"/>
<path fill-rule="evenodd" clip-rule="evenodd" d="M20.1599 29.0807C22.2477 25.6761 24.8471 20.0695 23.452 14.863C21.2525 6.6544 15.2107 1.14118 9.95722 2.54885C4.70374 3.95652 2.22798 11.752 4.42746 19.9606C5.82253 25.1671 10.8769 28.7229 14.3873 30.6274C14.3854 30.8453 14.4126 31.067 14.4717 31.2877L25.9413 74.0929C26.2933 75.4063 27.6432 76.1857 28.9566 75.8338L30.1456 75.5152C31.459 75.1632 32.2384 73.8133 31.8865 72.4999L20.4169 29.6947C20.3578 29.474 20.2705 29.2684 20.1599 29.0807Z" fill="#CC0829"/>
</svg>
