<svg width="135" height="40" viewBox="0 0 135 40" fill="none" xmlns="http://www.w3.org/2000/svg">
<g clip-path="url(#clip0_109_395)">
<path d="M130 40H5C2.25 40 0 37.75 0 35V5C0 2.25 2.25 0 5 0H130C132.75 0 135 2.25 135 5V35C135 37.75 132.75 40 130 40Z" fill="#FFEDE6"/>
<path d="M106.936 30H108.802V17.4989H106.936V30ZM123.743 22.002L121.604 27.4219H121.54L119.32 22.002H117.31L120.639 29.5774L118.741 33.791H120.688L125.818 22.002H123.743ZM113.161 28.5801C112.549 28.5801 111.697 28.2746 111.697 27.5184C111.697 26.5535 112.759 26.1836 113.675 26.1836C114.496 26.1836 114.881 26.3605 115.38 26.602C115.235 27.7599 114.238 28.5801 113.161 28.5801ZM113.386 21.7285C112.035 21.7285 110.636 22.3239 110.057 23.6426L111.713 24.334C112.067 23.6426 112.726 23.4172 113.418 23.4172C114.383 23.4172 115.364 23.9965 115.38 25.0259V25.1544C115.042 24.9614 114.319 24.6719 113.434 24.6719C111.649 24.6719 109.831 25.6528 109.831 27.4864C109.831 29.159 111.295 30.2368 112.935 30.2368C114.19 30.2368 114.881 29.6739 115.316 29.0145H115.38V29.9794H117.181V25.1864C117.181 22.9673 115.525 21.7285 113.386 21.7285ZM101.854 23.5239H99.1999V19.2387H101.854C103.249 19.2387 104.041 20.3938 104.041 21.3813C104.041 22.35 103.249 23.5239 101.854 23.5239ZM101.806 17.4989H97.3349V30H99.1999V25.2637H101.806C103.874 25.2637 105.907 23.7664 105.907 21.3813C105.907 18.9961 103.874 17.4989 101.806 17.4989ZM77.425 28.5824C76.1359 28.5824 75.0565 27.5031 75.0565 26.0207C75.0565 24.5227 76.1359 23.427 77.425 23.427C78.6976 23.427 79.6965 24.5227 79.6965 26.0207C79.6965 27.5031 78.6976 28.5824 77.425 28.5824ZM79.5675 22.702H79.503C79.0844 22.2027 78.2785 21.7516 77.2636 21.7516C75.137 21.7516 73.1879 23.6204 73.1879 26.0207C73.1879 28.4051 75.137 30.2579 77.2636 30.2579C78.2785 30.2579 79.0844 29.8066 79.503 29.2914H79.5675V29.9035C79.5675 31.531 78.6976 32.4009 77.296 32.4009C76.1523 32.4009 75.4434 31.5789 75.153 30.8864L73.5261 31.563C73.9934 32.6906 75.234 34.0762 77.296 34.0762C79.487 34.0762 81.3398 32.7871 81.3398 29.6457V22.0094H79.5675V22.702ZM82.6285 30H84.4975V17.4984H82.6285V30ZM87.2525 25.8759C87.2041 24.2324 88.525 23.3949 89.4749 23.3949C90.2166 23.3949 90.8449 23.7652 91.0541 24.2974L87.2525 25.8759ZM93.0516 24.4582C92.6983 23.5074 91.6183 21.7516 89.4108 21.7516C87.2199 21.7516 85.4 23.4754 85.4 26.0047C85.4 28.3891 87.2041 30.2579 89.6199 30.2579C91.5699 30.2579 92.6983 29.0656 93.1649 28.373L91.7149 27.4062C91.2316 28.1152 90.5708 28.5824 89.6199 28.5824C88.6699 28.5824 87.9933 28.1474 87.5583 27.2937L93.2449 24.9414L93.0516 24.4582ZM47.7438 23.0566V24.8609H52.0613C51.9324 25.8759 51.5941 26.6169 51.0785 27.1324C50.4504 27.7609 49.4676 28.4535 47.7438 28.4535C45.0855 28.4535 43.0074 26.3109 43.0074 23.6528C43.0074 20.9945 45.0855 18.8516 47.7438 18.8516C49.1776 18.8516 50.2246 19.4156 50.998 20.1406L52.2706 18.868C51.1914 17.8367 49.7574 17.0474 47.7438 17.0474C44.1026 17.0474 41.0418 20.0118 41.0418 23.6528C41.0418 27.2938 44.1026 30.2579 47.7438 30.2579C49.7094 30.2579 51.1914 29.6137 52.3511 28.4051C53.5434 27.2129 53.9141 25.5375 53.9141 24.1844C53.9141 23.7652 53.882 23.3789 53.8171 23.0566H47.7438ZM58.8226 28.5824C57.5335 28.5824 56.4219 27.5191 56.4219 26.0047C56.4219 24.4742 57.5335 23.427 58.8226 23.427C60.1113 23.427 61.223 24.4742 61.223 26.0047C61.223 27.5191 60.1113 28.5824 58.8226 28.5824ZM58.8226 21.7516C56.4703 21.7516 54.5531 23.5399 54.5531 26.0047C54.5531 28.4535 56.4703 30.2579 58.8226 30.2579C61.1745 30.2579 63.0918 28.4535 63.0918 26.0047C63.0918 23.5399 61.1745 21.7516 58.8226 21.7516ZM68.1359 28.5824C66.8473 28.5824 65.7355 27.5191 65.7355 26.0047C65.7355 24.4742 66.8473 23.427 68.1359 23.427C69.4245 23.427 70.5363 24.4742 70.5363 26.0047C70.5363 27.5191 69.4245 28.5824 68.1359 28.5824ZM68.1359 21.7516C65.7835 21.7516 63.8668 23.5399 63.8668 26.0047C63.8668 28.4535 65.7835 30.2579 68.1359 30.2579C70.4879 30.2579 72.405 28.4535 72.405 26.0047C72.405 23.5399 70.4879 21.7516 68.1359 21.7516Z" fill="#CC0829"/>
<path d="M10.5098 32.3895L10.4355 32.3184C10.1445 32.0105 9.97266 31.5324 9.97266 30.9134V31.059V8.94303V9.08953C9.97266 8.41911 10.173 7.91413 10.5086 7.61133L22.8984 20.0009L10.5098 32.3895Z" fill="url(#paint0_linear_109_395)"/>
<path d="M27.0289 24.132L22.8984 20.0009L27.0285 15.8704L32.0148 18.7031C32.648 19.0629 33.0035 19.5266 33.0629 20.0004C33.0629 20.0009 33.0629 20.0016 33.0629 20.0024C33.0035 20.475 32.648 20.9391 32.0148 21.2989L27.0289 24.132Z" fill="url(#paint1_linear_109_395)"/>
<path d="M11.3934 32.7149C11.0473 32.7152 10.7453 32.6024 10.5098 32.3899L22.8984 20.0009L27.0289 24.132L12.5137 32.3794C12.1121 32.607 11.7316 32.7149 11.3934 32.7149ZM10.5063 32.5336C10.4844 32.5137 10.4629 32.4926 10.4418 32.4707L10.5063 32.5336Z" fill="url(#paint2_linear_109_395)"/>
<path d="M22.8984 20.0009L10.5086 7.61133C10.7441 7.39923 11.0457 7.28672 11.3914 7.28672C11.7305 7.28672 12.1113 7.39493 12.5137 7.62303L27.0285 15.8704L22.8984 20.0009ZM12.5137 7.47702C12.1113 7.24882 11.7305 7.14062 11.3914 7.14062C11.3898 7.14062 11.3887 7.14062 11.3871 7.14062C11.3891 7.14062 11.3906 7.14062 11.393 7.14062C11.7313 7.14062 12.1117 7.24882 12.5137 7.47702Z" fill="url(#paint3_linear_109_395)"/>
<path d="M10.5094 32.5363L10.5063 32.5335C10.5074 32.5344 10.5086 32.5354 10.5094 32.5363ZM10.4418 32.4707L10.4355 32.4644C10.4379 32.4668 10.4398 32.4687 10.4418 32.4707Z" fill="#FFEDE6"/>
<path d="M11.3938 32.8613C11.0477 32.8613 10.7453 32.7484 10.5098 32.5359C10.509 32.535 10.5074 32.5344 10.5063 32.5335L10.4418 32.4706C10.4398 32.4686 10.4379 32.4664 10.4355 32.464L10.5098 32.3898C10.7453 32.6023 11.0473 32.7151 11.3934 32.7148C11.7316 32.7148 12.1121 32.607 12.5137 32.3793L27.0289 24.132L27.1219 24.225L27.0277 24.2785L12.5137 32.5254C12.1477 32.7328 11.7996 32.841 11.4852 32.859C11.4543 32.8605 11.4238 32.8613 11.3938 32.8613Z" fill="url(#paint4_linear_109_395)"/>
<path d="M10.4355 32.464C10.1445 32.1561 9.97266 31.6785 9.97266 31.059V30.9132C9.97266 31.5324 10.1445 32.0105 10.4355 32.3184L10.5098 32.3895L10.4355 32.464Z" fill="url(#paint5_linear_109_395)"/>
<path d="M27.1219 24.225L27.0289 24.132L32.0148 21.2988C32.648 20.9391 33.0035 20.475 33.0629 20.0023C33.0629 20.1758 33.0242 20.3492 32.9473 20.518C32.7922 20.8582 32.4813 21.1797 32.0148 21.4449L27.1219 24.225Z" fill="url(#paint6_linear_109_395)"/>
<path d="M33.0629 20.0008C33.0625 19.4777 32.7129 18.9543 32.0148 18.5574C32.7137 18.9543 33.0637 19.4776 33.0629 20.0008Z" fill="#404040"/>
<path d="M33.0629 20.0004C33.0035 19.5266 32.648 19.0629 32.0148 18.7031L27.0285 15.8703L27.1215 15.7773L32.0148 18.5574C32.7129 18.9543 33.0625 19.4773 33.0629 20.0004Z" fill="url(#paint7_linear_109_395)"/>
<path d="M9.97732 8.76486C10.0352 7.73753 10.5938 7.14413 11.384 7.14062C11.0414 7.14263 10.743 7.25513 10.5094 7.46563L10.5066 7.46803C10.482 7.49023 10.4586 7.51372 10.4355 7.53792C10.173 7.81562 10.0074 8.23163 9.97732 8.76486Z" fill="#404040"/>
<path d="M9.97266 9.0895V8.94342C9.97266 8.94142 9.97266 8.93983 9.97266 8.93792V8.93675C9.97266 8.88158 9.97416 8.82775 9.97699 8.77542V8.773L9.97732 8.77075C9.97732 8.76909 9.97732 8.766 9.97732 8.766V8.76484C10.0074 8.23161 10.173 7.81561 10.4355 7.53791L10.5086 7.61131C10.173 7.91411 9.97266 8.41908 9.97266 9.0895ZM10.5066 7.46801L10.5094 7.46521L10.5066 7.46801Z" fill="url(#paint8_linear_109_395)"/>
<path d="M27.0285 15.8704L12.5137 7.62303C12.1114 7.39493 11.7305 7.28672 11.3914 7.28672C11.0457 7.28672 10.7441 7.39923 10.5086 7.61133L10.4355 7.53792C10.4586 7.51372 10.482 7.49023 10.5066 7.46803C10.5074 7.46723 10.5086 7.46643 10.5094 7.46563C10.743 7.25513 11.0414 7.14262 11.384 7.14062C11.3848 7.14062 11.3859 7.14062 11.3871 7.14062C11.3887 7.14062 11.3898 7.14062 11.3914 7.14062C11.7305 7.14062 12.1114 7.24882 12.5137 7.47702L27.1219 15.777L27.0285 15.8704Z" fill="url(#paint9_linear_109_395)"/>
<path d="M42.0488 12.2629H43.1133C43.8059 12.2629 44.3547 12.0645 44.7598 11.6676C45.1648 11.2711 45.3672 10.7148 45.3672 10C45.3672 9.29059 45.1648 8.73634 44.7598 8.33634C44.3547 7.9375 43.8059 7.7371 43.1133 7.7371H42.0488V12.2629ZM41.2781 13V7H43.1133C44.0352 7 44.7727 7.2777 45.3262 7.834C45.8789 8.38951 46.1555 9.11134 46.1555 10C46.1555 10.8883 45.8789 11.6105 45.3262 12.166C44.7727 12.7223 44.0352 13 43.1133 13H41.2781Z" fill="#CC0829"/>
<path d="M42.0488 12.2629V12.3629H43.1133C43.8238 12.3637 44.4039 12.157 44.8297 11.7391C45.2578 11.3207 45.468 10.7329 45.4672 10C45.468 9.27269 45.2574 8.68636 44.8301 8.26523C44.4043 7.84493 43.8242 7.63633 43.1133 7.63713H42.0488H41.9488V12.3629H42.0488V12.2629H42.1488V7.83713H43.1133C43.7871 7.83833 44.3051 8.03013 44.6895 8.40786C45.0727 8.78678 45.2664 9.30861 45.2672 10C45.2664 10.6969 45.0723 11.2211 44.6898 11.5961C44.3051 11.9719 43.7875 12.1617 43.1133 12.1629H42.0488V12.2629ZM41.2781 13H41.3781V7.10003H43.1133C44.0156 7.10083 44.7215 7.36913 45.2555 7.90473C45.7883 8.44144 46.0543 9.13161 46.0555 10C46.0543 10.868 45.7883 11.5586 45.2555 12.0954C44.7215 12.6309 44.0156 12.8992 43.1133 12.9H41.2781V13V13.1H43.1133C44.0547 13.1009 44.8234 12.8137 45.3969 12.2367C45.9695 11.6621 46.2563 10.9082 46.2555 10C46.2563 9.09103 45.9695 8.33794 45.3973 7.76373C44.8234 7.18633 44.0547 6.89923 43.1133 6.90003H41.1781V13.1H41.2781V13Z" fill="#CC0829"/>
<path d="M47.2371 13V7H48.0078V13H47.2371Z" fill="#CC0829"/>
<path d="M47.2371 13H47.3371V7.10002H47.9078V12.9H47.2371V13V13.1H48.0078H48.1078V6.90002H47.2371H47.1371V13.1H47.2371V13Z" fill="#CC0829"/>
<path d="M51.0742 13.134C50.6387 13.134 50.2129 12.9918 49.7969 12.707C49.3801 12.4219 49.1074 12.0227 48.9797 11.5082L49.6836 11.2234C49.7676 11.5531 49.9387 11.8312 50.198 12.057C50.459 12.2832 50.75 12.3965 51.0742 12.3965C51.4094 12.3965 51.6965 12.3086 51.9336 12.1328C52.1711 11.957 52.2891 11.718 52.2891 11.416C52.2891 11.0812 52.1711 10.8227 51.9336 10.641C51.6965 10.4594 51.3203 10.2906 50.8066 10.134C50.2754 9.96676 49.873 9.75001 49.5996 9.48443C49.3262 9.21909 49.1887 8.88009 49.1887 8.46643C49.1887 8.0359 49.3594 7.6621 49.7004 7.3437C50.041 7.0254 50.4855 6.8656 51.032 6.8656C51.541 6.8656 51.9543 6.9934 52.2727 7.2473C52.5906 7.5016 52.798 7.7793 52.8926 8.0812L52.1895 8.37376C52.1387 8.1848 52.0145 8.0082 51.8164 7.8461C51.6184 7.6848 51.3621 7.6035 51.0488 7.6035C50.7527 7.6035 50.5 7.6855 50.291 7.8508C50.0813 8.0156 49.9766 8.2207 49.9766 8.46643C49.9766 8.68976 50.073 8.87851 50.2656 9.03201C50.459 9.18551 50.7422 9.32418 51.116 9.44693C51.4121 9.54218 51.6594 9.63401 51.8586 9.72343C52.0566 9.81251 52.2578 9.93159 52.4609 10.0797C52.6648 10.2273 52.8184 10.4121 52.9219 10.6328C53.0254 10.8535 53.077 11.109 53.077 11.3992C53.077 11.6898 53.0176 11.9496 52.8977 12.1785C52.7773 12.4082 52.6172 12.5895 52.4188 12.7234C52.2207 12.8574 52.0078 12.9594 51.7781 13.0293C51.5488 13.0992 51.3145 13.134 51.0742 13.134Z" fill="#CC0829"/>
<path d="M51.0742 13.134V13.034C50.6609 13.0336 50.2563 12.9 49.8531 12.6246C49.4563 12.352 49.2 11.9777 49.0766 11.4844L48.9797 11.5082L49.0172 11.6012L49.7211 11.3164L49.6836 11.2234L49.5867 11.2484C49.675 11.5965 49.8586 11.8945 50.1324 12.1324C50.4077 12.3719 50.7266 12.4974 51.0742 12.4965C51.4266 12.4969 51.7375 12.4027 51.993 12.2134C52.2539 12.0224 52.391 11.7437 52.3891 11.416C52.391 11.0582 52.257 10.7609 51.9945 10.5617C51.7402 10.368 51.3559 10.1974 50.8359 10.0384C50.3141 9.87461 49.9266 9.66336 49.6691 9.41253C49.4152 9.16519 49.2895 8.85786 49.2887 8.46644C49.2895 8.06333 49.4445 7.72113 49.7684 7.41683C50.0895 7.11763 50.5043 6.96643 51.032 6.96563C51.525 6.96603 51.9125 7.08833 52.2102 7.32543C52.5176 7.57113 52.7098 7.83283 52.7973 8.11093L52.8926 8.08123L52.8543 7.98873L52.1512 8.28163L52.1895 8.37386L52.2859 8.34803C52.2285 8.13363 52.0895 7.93983 51.8797 7.76873C51.6609 7.59023 51.3789 7.50313 51.0488 7.50353C50.7348 7.50313 50.4563 7.59223 50.2289 7.77233C49.9992 7.95083 49.875 8.19143 49.8766 8.46644C49.875 8.71953 49.9918 8.94344 50.2031 9.11019C50.4109 9.27469 50.7043 9.41686 51.0852 9.54186C51.379 9.63603 51.623 9.72736 51.8172 9.81486C52.0077 9.90044 52.2035 10.016 52.402 10.1605C52.5931 10.2992 52.7348 10.4695 52.8313 10.6754C52.9277 10.8805 52.977 11.1207 52.977 11.3992C52.977 11.6766 52.9207 11.9187 52.809 12.1324C52.6953 12.3484 52.5473 12.516 52.3629 12.6406C52.1727 12.7691 51.9691 12.8669 51.7492 12.9336C51.5289 13.0009 51.3047 13.034 51.0742 13.034V13.134V13.234C51.3242 13.234 51.5688 13.1977 51.8074 13.125C52.0465 13.0524 52.2688 12.9457 52.475 12.8066C52.6875 12.6634 52.8594 12.468 52.9859 12.225C53.1145 11.9805 53.1773 11.7035 53.177 11.3992C53.1773 11.0974 53.123 10.8266 53.0125 10.5902C52.902 10.3547 52.7363 10.1555 52.5195 9.99844C52.3112 9.84694 52.1051 9.72461 51.8992 9.63244C51.6949 9.54019 51.4449 9.44769 51.1469 9.35161C50.7801 9.23161 50.5066 9.09611 50.3277 8.95394C50.1542 8.81336 50.0781 8.66019 50.0766 8.46644C50.0781 8.25003 50.1625 8.08093 50.3527 7.92933C50.5434 7.77933 50.7711 7.70393 51.0488 7.70353C51.3457 7.70393 51.5754 7.77893 51.7531 7.92383C51.9398 8.07703 52.0488 8.23553 52.093 8.40003L52.1223 8.51019L52.9309 8.17343L53.0152 8.13833L52.9879 8.05123C52.8859 7.72583 52.6641 7.43203 52.3348 7.16873C51.9957 6.89803 51.557 6.76523 51.032 6.76563C50.4664 6.76483 49.9926 6.93323 49.632 7.27073C49.2742 7.60313 49.0875 8.00903 49.0887 8.46644C49.0875 8.90203 49.2367 9.27344 49.5301 9.55619C49.8195 9.83669 50.2359 10.059 50.7766 10.2294C51.2841 10.384 51.6523 10.5512 51.8727 10.7204C52.0848 10.8849 52.1871 11.1039 52.1891 11.416C52.1871 11.6919 52.0879 11.8919 51.8742 12.0524C51.6551 12.2145 51.3922 12.2961 51.0742 12.2965C50.7734 12.2957 50.5098 12.1941 50.2637 11.9816C50.0184 11.7676 49.8602 11.5102 49.7805 11.1989L49.7523 11.0879L48.9422 11.4156L48.8613 11.448L48.8824 11.5324C49.0148 12.0672 49.3035 12.4919 49.7402 12.7895C50.1695 13.0836 50.6168 13.234 51.0742 13.234V13.134Z" fill="#CC0829"/>
<path d="M54.9543 9.83201H56.2449C56.5691 9.83201 56.8293 9.72343 57.0242 9.50593C57.2195 9.28751 57.3176 9.04801 57.3176 8.78518C57.3176 8.52268 57.2195 8.282 57.0242 8.0645C56.8293 7.8461 56.5691 7.7371 56.2449 7.7371H54.9543V9.83201ZM54.9543 13H54.1836V7H56.2285C56.7363 7 57.177 7.1687 57.548 7.5066C57.9199 7.8445 58.1055 8.2711 58.1055 8.78518C58.1055 9.29876 57.9199 9.72459 57.548 10.0625C57.177 10.4008 56.7363 10.5699 56.2285 10.5699H54.9543V13Z" fill="#CC0829"/>
<path d="M54.9543 9.83203V9.93203H56.2449C56.591 9.93319 56.8855 9.81211 57.0988 9.57269C57.3078 9.34019 57.418 9.07303 57.4176 8.78519C57.418 8.49736 57.3078 8.22973 57.0988 7.99773C56.8855 7.75743 56.591 7.63593 56.2449 7.63713H54.9543H54.8543V9.93203H54.9543V9.83203H55.0543V7.83713H56.2449C56.5473 7.83873 56.7727 7.93483 56.95 8.13123C57.1316 8.33486 57.2168 8.54769 57.2176 8.78519C57.2168 9.02269 57.1316 9.23486 56.95 9.43911C56.7727 9.63519 56.5477 9.73094 56.2449 9.73203H54.9543V9.83203ZM54.9543 13V12.9H54.2836V7.10003H56.2285C56.7141 7.10083 57.1258 7.25903 57.4805 7.58093C57.8328 7.90233 58.0043 8.29493 58.0055 8.78519C58.0043 9.27461 57.8328 9.66686 57.4805 9.98869C57.1258 10.3109 56.7141 10.4691 56.2285 10.4699H54.9543H54.8543V13H54.9543H55.0543V10.6699H56.2285C56.7586 10.6707 57.2277 10.4906 57.6152 10.1364C58.007 9.78244 58.2066 9.32303 58.2055 8.78519C58.2066 8.24693 58.007 7.78713 57.6152 7.43283C57.2277 7.07893 56.7586 6.89923 56.2285 6.90003H54.0836V13.1H54.9543H55.0543V13H54.9543Z" fill="#CC0829"/>
<path d="M60.1531 11.7223C60.5977 12.1719 61.1406 12.3965 61.7832 12.3965C62.4257 12.3965 62.9695 12.1719 63.4133 11.7223C63.8574 11.2727 64.0801 10.698 64.0801 10C64.0801 9.30201 63.8574 8.72726 63.4133 8.2777C62.9695 7.8281 62.4257 7.6035 61.7832 7.6035C61.1406 7.6035 60.5977 7.8281 60.1531 8.2777C59.7102 8.72726 59.4871 9.30201 59.4871 10C59.4871 10.698 59.7102 11.2727 60.1531 11.7223ZM63.9836 12.2246C63.3938 12.8312 62.6602 13.134 61.7832 13.134C60.9062 13.134 60.173 12.8312 59.584 12.2246C58.9941 11.6187 58.7004 10.877 58.7004 10C58.7004 9.12301 58.9941 8.38118 59.584 7.7754C60.173 7.1687 60.9062 6.8656 61.7832 6.8656C62.6555 6.8656 63.3867 7.1703 63.9797 7.7793C64.5715 8.38826 64.8672 9.12851 64.8672 10C64.8672 10.877 64.5723 11.6187 63.9836 12.2246Z" fill="#CC0829"/>
<path d="M60.1531 11.7224L60.082 11.7926C60.543 12.2602 61.1172 12.4977 61.7832 12.4965C62.4492 12.4977 63.0246 12.2602 63.4844 11.7926C63.9477 11.3246 64.1809 10.7191 64.1801 10C64.1809 9.28094 63.9477 8.67544 63.4844 8.20743C63.0246 7.73983 62.4492 7.50233 61.7832 7.50353C61.1172 7.50233 60.543 7.73983 60.082 8.20743C59.6195 8.67544 59.3863 9.28094 59.3871 10C59.3863 10.7191 59.6195 11.3246 60.082 11.7926L60.1531 11.7224L60.2246 11.652C59.8004 11.2204 59.5883 10.6774 59.5875 10C59.5883 9.32269 59.8004 8.77969 60.2246 8.34803C60.6527 7.91643 61.1641 7.70473 61.7832 7.70353C62.4023 7.70473 62.9148 7.91643 63.3418 8.34803C63.7672 8.77969 63.9793 9.32269 63.9801 10C63.9793 10.6774 63.7672 11.2204 63.3418 11.652C62.9148 12.0836 62.4023 12.2954 61.7832 12.2965C61.1641 12.2954 60.6527 12.0836 60.2246 11.652L60.1531 11.7224ZM63.9836 12.2246L63.9117 12.1551C63.3387 12.7426 62.6371 13.0329 61.7832 13.034C60.9293 13.0329 60.2277 12.7426 59.6559 12.1551C59.084 11.5656 58.8012 10.8547 58.8004 10C58.8012 9.14536 59.0836 8.43444 59.6555 7.84493C60.2272 7.25743 60.9293 6.96683 61.7832 6.96563C62.632 6.96683 63.3316 7.25863 63.9078 7.84923C64.482 8.44144 64.7664 9.15119 64.7672 10C64.7664 10.8547 64.4828 11.5656 63.9117 12.1551L63.9836 12.2246L64.0551 12.2941C64.6617 11.6715 64.968 10.8992 64.9672 10C64.968 9.10594 64.6605 8.33519 64.0512 7.70982C63.4418 7.08202 62.6785 6.76453 61.7832 6.76563C60.8832 6.76453 60.118 7.08052 59.5121 7.70592C58.9047 8.32893 58.5992 9.10086 58.6004 10C58.5992 10.8992 58.9047 11.6715 59.5121 12.2945C60.118 12.9199 60.8832 13.2349 61.7832 13.234C62.6832 13.2349 63.4484 12.9195 64.0551 12.2941L63.9836 12.2246Z" fill="#CC0829"/>
<path d="M65.9492 13V7H66.8879L69.8035 11.6676H69.8367L69.8035 10.5113V7H70.5754V13H69.7704L66.7195 8.1062H66.6864L66.7195 9.26293V13H65.9492Z" fill="#CC0829"/>
<path d="M65.9492 13H66.0492V7.10002H66.8324L69.7484 11.7676H69.8367H69.9398L69.9035 10.5099V7.10002H70.4754V12.9H69.8262L66.7754 8.00622H66.6863H66.5836L66.6195 9.26411V12.9H65.9492V13V13.1H66.7195H66.8195V9.26136L66.7863 8.10352L66.6863 8.10622V8.20622H66.7195V8.10622L66.6348 8.15942L69.7148 13.1H70.5754H70.6754V6.90002H69.8035H69.7035V10.5125L69.7371 11.6704L69.8367 11.6676V11.5676H69.8035V11.6676L69.8887 11.6145L66.943 6.90002H65.9492H65.8492V13.1H65.9492V13Z" fill="#CC0829"/>
<path d="M71.9492 13V7H72.7195V13H71.9492Z" fill="#CC0829"/>
<path d="M71.9492 13H72.0492V7.10002H72.6195V12.9H71.9492V13V13.1H72.7195H72.8195V6.90002H71.9492H71.8492V13.1H71.9492V13Z" fill="#CC0829"/>
<path d="M74.8645 12.2629H76.4148C76.7109 12.2629 76.9511 12.1594 77.1355 11.952C77.3203 11.7461 77.4121 11.5195 77.4121 11.2734C77.4121 11.0277 77.3176 10.8031 77.127 10.5992C76.9375 10.3953 76.6886 10.293 76.3809 10.293H74.8645V12.2629ZM74.8645 9.57226H76.2636C76.5546 9.57226 76.7883 9.47659 76.9641 9.28318C77.1395 9.09059 77.2273 8.88009 77.2273 8.65084C77.2273 8.42192 77.1426 8.2117 76.9719 8.0227C76.802 7.8324 76.577 7.7371 76.298 7.7371H74.8645V9.57226ZM74.0938 13V7H76.2636C76.7336 7 77.1395 7.1555 77.4836 7.4648C77.827 7.7754 77.9988 8.1648 77.9988 8.63401C77.9988 8.91868 77.9246 9.17034 77.7766 9.38834C77.6289 9.60618 77.4316 9.77109 77.1855 9.88284V9.91601C77.4813 10.0164 77.7246 10.1898 77.9148 10.4355C78.1047 10.6816 78.2004 10.9668 78.2004 11.2906C78.2004 11.782 78.0195 12.1898 77.6594 12.5137C77.2988 12.8379 76.873 13 76.3809 13H74.0938Z" fill="#CC0829"/>
<path d="M74.8645 12.2629V12.3629H76.4148C76.734 12.3641 77.0086 12.2469 77.2105 12.0187C77.4089 11.7989 77.5129 11.5449 77.5121 11.2734C77.5129 11.0016 77.4043 10.7489 77.2 10.5309C76.9922 10.3062 76.7102 10.1919 76.3809 10.193H74.7645V12.3629H74.8645V12.2629H74.9645V10.393H76.3809C76.6668 10.3941 76.8824 10.4849 77.0535 10.6672C77.2301 10.8579 77.3113 11.0544 77.3121 11.2734C77.3113 11.4941 77.232 11.6934 77.0613 11.8855C76.8943 12.0715 76.6879 12.1614 76.4148 12.1629H74.8645V12.2629ZM74.8645 9.57236V9.67236H76.2637C76.5762 9.67344 76.8438 9.56561 77.0379 9.35044C77.227 9.14411 77.3281 8.90619 77.3273 8.65086C77.3281 8.39694 77.2309 8.15943 77.0461 7.95553C76.8586 7.74373 76.5992 7.63593 76.298 7.63713H74.7645V9.67236H74.8645V9.57236H74.9645V7.83713H76.298C76.5547 7.83873 76.7449 7.92073 76.8973 8.08913L76.898 8.08983C77.055 8.26483 77.127 8.44736 77.1273 8.65086C77.127 8.85353 77.0523 9.03711 76.8898 9.21561C76.7324 9.38711 76.5332 9.47111 76.2637 9.47236H74.8645V9.57236ZM74.0938 13H74.1938V7.10003H76.2637C76.7113 7.10083 77.0891 7.24533 77.4164 7.53913C77.7406 7.83363 77.8977 8.18953 77.8988 8.63403C77.8988 8.90161 77.8305 9.13094 77.6938 9.33203C77.5563 9.53519 77.375 9.68669 77.1441 9.79186L77.0855 9.81844V9.91603V9.98753L77.1535 10.0105C77.4316 10.1059 77.6566 10.266 77.8359 10.4969C78.0117 10.7266 78.0996 10.9864 78.1004 11.2906C78.0988 11.7579 77.9328 12.1316 77.5922 12.4395C77.2484 12.7477 76.8512 12.8992 76.3809 12.9H74.0938V13V13.1H76.3809C76.8949 13.1009 77.3492 12.9281 77.7262 12.5879C78.1059 12.2484 78.3016 11.8066 78.3004 11.2906C78.3008 10.9474 78.1969 10.6371 77.9941 10.3746C77.7926 10.1145 77.5313 9.92736 77.2176 9.82153L77.1855 9.91603H77.2855V9.88286H77.1855L77.227 9.97386C77.4883 9.85553 77.702 9.67769 77.8594 9.44411C78.0195 9.20944 78.0992 8.93594 78.0988 8.63403C78.1004 8.14063 77.9137 7.71723 77.5504 7.39063C77.1902 7.06523 76.7555 6.89923 76.2637 6.90003H73.9938V13.1H74.0938V13Z" fill="#CC0829"/>
<path d="M79.2395 13V7H80.0098V12.2629H82.6074V13H79.2395Z" fill="#CC0829"/>
<path d="M79.2395 13H79.3395V7.10002H79.9099V12.3629H82.5074V12.9H79.2395V13V13.1H82.7074V12.2629V12.1629H80.1099V6.90002H79.2395H79.1395V13.1H79.2395V13Z" fill="#CC0829"/>
<path d="M87.0825 7.7371H84.3508V9.63951H86.8142V10.3605H84.3508V12.2629H87.0825V13H83.58V7H87.0825V7.7371Z" fill="#CC0829"/>
<path d="M87.0825 7.73712V7.63712H84.2508V9.73952H86.7142V10.2602L84.2508 10.2605V12.3629H86.9825V12.9H83.68V7.10002H86.9825V7.73712H87.0825H87.1825V7.00002V6.90002H83.48V13.1H87.1825V12.2629V12.1629H84.4508V10.4605H86.9142V9.63952V9.53952H84.4508V7.83712H87.1825V7.73712H87.0825Z" fill="#CC0829"/>
<path d="M91.7417 13.134C91.3067 13.134 90.8808 12.9918 90.465 12.707C90.0483 12.4219 89.775 12.0227 89.6475 11.5082L90.3517 11.2234C90.4358 11.5531 90.6058 11.8312 90.8658 12.057C91.1267 12.2832 91.4183 12.3965 91.7417 12.3965C92.0767 12.3965 92.3642 12.3086 92.6017 12.1328C92.8392 11.957 92.9567 11.718 92.9567 11.416C92.9567 11.0812 92.8392 10.8227 92.6017 10.641C92.3642 10.4594 91.9883 10.2906 91.475 10.134C90.9433 9.96676 90.5408 9.75001 90.2683 9.48443C89.9942 9.21909 89.8567 8.88009 89.8567 8.46643C89.8567 8.0359 90.0267 7.6621 90.3683 7.3437C90.7092 7.0254 91.1533 6.8656 91.7 6.8656C92.2092 6.8656 92.6217 6.9934 92.94 7.2473C93.2592 7.5016 93.4658 7.7793 93.5608 8.0812L92.8567 8.37376C92.8067 8.1848 92.6833 8.0082 92.4842 7.8461C92.2858 7.6848 92.03 7.6035 91.7167 7.6035C91.4208 7.6035 91.1683 7.6855 90.9592 7.8508C90.7492 8.0156 90.645 8.2207 90.645 8.46643C90.645 8.68976 90.7408 8.87851 90.9342 9.03201C91.1267 9.18551 91.41 9.32418 91.7842 9.44693C92.08 9.54218 92.3267 9.63401 92.5258 9.72343C92.725 9.81251 92.9258 9.93159 93.1292 10.0797C93.3333 10.2273 93.4858 10.4121 93.59 10.6328C93.6933 10.8535 93.745 11.109 93.745 11.3992C93.745 11.6898 93.6858 11.9496 93.565 12.1785C93.445 12.4082 93.285 12.5895 93.0867 12.7234C92.8892 12.8574 92.6758 12.9594 92.4458 13.0293C92.2167 13.0992 91.9817 13.134 91.7417 13.134Z" fill="#CC0829"/>
<path d="M91.7417 13.134V13.034C91.3292 13.0336 90.9242 12.9 90.5208 12.6246C90.1242 12.352 89.8683 11.9777 89.7442 11.4844L89.6475 11.5082L89.685 11.6012L90.3892 11.3164L90.3517 11.2234L90.255 11.2484C90.3433 11.5965 90.5258 11.8945 90.8008 12.1324C91.0758 12.3719 91.3942 12.4974 91.7417 12.4965C92.0942 12.4969 92.405 12.4027 92.6608 12.2134C92.9217 12.0224 93.0592 11.7437 93.0567 11.416C93.0592 11.0582 92.925 10.7609 92.6617 10.5617C92.4083 10.368 92.0242 10.1974 91.5042 10.0384C90.9825 9.87461 90.595 9.66336 90.3367 9.41253C90.0833 9.16519 89.9575 8.85786 89.9567 8.46644C89.9575 8.06333 90.1117 7.72113 90.4358 7.41683C90.7583 7.11763 91.1717 6.96643 91.7 6.96563C92.1933 6.96603 92.58 7.08833 92.8783 7.32543C93.185 7.57113 93.3783 7.83283 93.465 8.11093L93.5608 8.08123L93.5217 7.98873L92.8192 8.28163L92.8567 8.37386L92.9542 8.34803C92.8967 8.13363 92.7567 7.93983 92.5483 7.76873C92.3292 7.59023 92.0467 7.50313 91.7167 7.50353C91.4033 7.50313 91.1242 7.59223 90.8967 7.77233C90.6683 7.95083 90.5433 8.19143 90.545 8.46644C90.5433 8.71953 90.66 8.94344 90.8708 9.11019C91.0792 9.27469 91.3717 9.41686 91.7533 9.54186L91.7542 9.54219C92.0467 9.63636 92.2908 9.72736 92.485 9.81486C92.6758 9.90044 92.8717 10.016 93.07 10.1605C93.2608 10.2992 93.4033 10.4695 93.4992 10.6754C93.5958 10.8805 93.645 11.1207 93.645 11.3992C93.645 11.6766 93.5892 11.9187 93.4767 12.1324C93.3633 12.3484 93.215 12.516 93.0308 12.6406C92.8408 12.7691 92.6367 12.8669 92.4167 12.9336C92.1967 13.0009 91.9733 13.034 91.7417 13.034V13.134V13.234C91.9917 13.234 92.2367 13.1977 92.475 13.125C92.7142 13.0524 92.9367 12.9457 93.1433 12.8066C93.355 12.6634 93.5267 12.468 93.6542 12.225C93.7817 11.9805 93.845 11.7035 93.845 11.3992C93.845 11.0974 93.7908 10.8266 93.68 10.5902C93.57 10.3547 93.405 10.1555 93.1883 9.99844C92.98 9.84694 92.7733 9.72461 92.5667 9.63244C92.3633 9.54019 92.1133 9.44769 91.815 9.35161C91.4483 9.23161 91.175 9.09611 90.9958 8.95394C90.8233 8.81336 90.7458 8.66019 90.745 8.46644C90.7458 8.25003 90.8308 8.08093 91.0208 7.92933C91.2117 7.77933 91.4392 7.70393 91.7167 7.70353C92.0142 7.70393 92.2433 7.77893 92.4208 7.92383C92.6083 8.07703 92.7167 8.23553 92.7608 8.40003L92.79 8.51019L93.5992 8.17343L93.6833 8.13833L93.6558 8.05123C93.5542 7.72583 93.3317 7.43203 93.0033 7.16873C92.6642 6.89803 92.225 6.76523 91.7 6.76563C91.1342 6.76483 90.66 6.93323 90.3 7.27073C89.9425 7.60313 89.7558 8.00903 89.7567 8.46644C89.7558 8.90203 89.905 9.27344 90.1983 9.55619C90.4867 9.83669 90.9042 10.059 91.445 10.2294C91.9533 10.384 92.32 10.5512 92.5408 10.7204C92.7533 10.8849 92.855 11.1039 92.8567 11.416C92.855 11.6919 92.7558 11.8919 92.5417 12.0524C92.3233 12.2145 92.06 12.2961 91.7417 12.2965C91.4417 12.2957 91.1783 12.1941 90.9317 11.9816C90.6867 11.7676 90.5283 11.5102 90.4483 11.1989L90.42 11.0879L89.61 11.4156L89.5292 11.448L89.55 11.5324C89.6825 12.0672 89.9717 12.4919 90.4083 12.7895C90.8367 13.0836 91.285 13.234 91.7417 13.234V13.134Z" fill="#CC0829"/>
<path d="M96.9383 13.134C96.2767 13.134 95.7433 12.916 95.3317 12.4805C94.9217 12.0449 94.7167 11.4746 94.7167 10.7711V7H95.4867V10.8047C95.4867 11.2793 95.6108 11.6633 95.86 11.957C96.1083 12.25 96.4683 12.3965 96.9383 12.3965C97.4058 12.3965 97.7658 12.25 98.0142 11.957C98.2633 11.6633 98.3867 11.2793 98.3867 10.8047V7H99.1583V10.7711C99.1583 11.4805 98.9583 12.052 98.5592 12.4844C98.1592 12.918 97.6183 13.134 96.9383 13.134Z" fill="#CC0829"/>
<path d="M96.9383 13.134V13.034C96.2992 13.0324 95.7983 12.827 95.405 12.4117C95.0142 11.9961 94.8183 11.4559 94.8167 10.7711V7.10003H95.3867V10.8047C95.3867 11.2961 95.5167 11.707 95.7842 12.0219C96.0517 12.3402 96.4483 12.4977 96.9383 12.4965C97.4258 12.4977 97.8217 12.3402 98.09 12.0215C98.3567 11.707 98.4867 11.2961 98.4867 10.8047V7.10003H99.0583V10.7711C99.0583 11.4621 98.865 12.0044 98.485 12.4164C98.105 12.8277 97.5983 13.0329 96.9383 13.034V13.134V13.234C97.6392 13.2349 98.2133 13.0079 98.6317 12.552C99.0508 12.0992 99.2592 11.4984 99.2583 10.7711V6.90002H98.3867H98.2867V10.8047C98.2858 11.2625 98.1683 11.6191 97.9367 11.8926C97.71 12.1599 97.3867 12.2954 96.9383 12.2965C96.4867 12.2954 96.1642 12.1599 95.9367 11.8926C95.7058 11.6191 95.5883 11.2625 95.5867 10.8047V6.90002H94.7167H94.6167V10.7711C94.6158 11.4934 94.83 12.0937 95.2592 12.5489C95.6883 13.0051 96.2558 13.2349 96.9383 13.234V13.134Z" fill="#CC0829"/>
<path d="M101.169 9.84918H102.409C102.717 9.84918 102.98 9.74843 103.201 9.54726C103.422 9.34693 103.532 9.09218 103.532 8.78518C103.532 8.52268 103.435 8.282 103.239 8.0645C103.044 7.8461 102.784 7.7371 102.46 7.7371H101.169V9.84918ZM100.398 13V7H102.443C102.951 7 103.392 7.1687 103.763 7.5066C104.135 7.8445 104.32 8.2711 104.32 8.78518C104.32 9.20393 104.184 9.57418 103.909 9.89534C103.636 10.2168 103.295 10.4187 102.887 10.5027L102.87 10.5277L104.555 12.9668V13H103.642L102.024 10.5699H101.169V13H100.398Z" fill="#CC0829"/>
<path d="M101.169 9.84919V9.94919H102.409C102.739 9.95003 103.031 9.83869 103.269 9.62153C103.51 9.40436 103.633 9.11603 103.632 8.78519C103.633 8.49736 103.523 8.22973 103.314 7.99773C103.1 7.75743 102.806 7.63593 102.46 7.63713H101.169H101.069V9.94919H101.169V9.84919H101.269V7.83713H102.46C102.762 7.83873 102.987 7.93483 103.165 8.13123C103.346 8.33486 103.432 8.54769 103.432 8.78519C103.431 9.06844 103.335 9.28911 103.134 9.47344C102.93 9.65819 102.695 9.74844 102.409 9.74919H101.169V9.84919ZM100.398 13H100.498V7.10003H102.443C102.929 7.10083 103.341 7.25903 103.695 7.58093C104.048 7.90233 104.219 8.29493 104.22 8.78519C104.22 9.18244 104.093 9.52544 103.833 9.83053C103.572 10.1359 103.254 10.3246 102.867 10.4051L102.826 10.4134L102.787 10.4724L102.749 10.5289L104.455 12.998V13H104.555V12.9H103.695L102.078 10.4699H101.169H101.069V12.9H100.398V13V13.1H101.169H101.269V10.6699H101.971L103.588 13.1H104.555H104.655V12.9669V12.9355L102.952 10.4711L102.87 10.5277L102.953 10.5832L102.97 10.5582L102.887 10.5027L102.907 10.6009C103.335 10.5134 103.699 10.2974 103.985 9.96019C104.274 9.62269 104.421 9.22586 104.42 8.78519C104.422 8.24693 104.222 7.78713 103.83 7.43283C103.442 7.07893 102.973 6.89923 102.443 6.90003H100.298V13.1H100.398V13Z" fill="#CC0829"/>
</g>
<defs>
<linearGradient id="paint0_linear_109_395" x1="21.7998" y1="8.70969" x2="5.01729" y2="25.4922" gradientUnits="userSpaceOnUse">
<stop stop-color="#00A0FF"/>
<stop offset="0.00657445" stop-color="#00A1FF"/>
<stop offset="0.2601" stop-color="#00BEFF"/>
<stop offset="0.5122" stop-color="#00D2FF"/>
<stop offset="0.7604" stop-color="#00DFFF"/>
<stop offset="1" stop-color="#00E3FF"/>
</linearGradient>
<linearGradient id="paint1_linear_109_395" x1="33.8344" y1="20.0014" x2="9.63741" y2="20.0014" gradientUnits="userSpaceOnUse">
<stop stop-color="#FFE000"/>
<stop offset="0.4087" stop-color="#FFBD00"/>
<stop offset="0.7754" stop-color="#FFA500"/>
<stop offset="1" stop-color="#FF9C00"/>
</linearGradient>
<linearGradient id="paint2_linear_109_395" x1="24.827" y1="22.2961" x2="2.06869" y2="45.0544" gradientUnits="userSpaceOnUse">
<stop stop-color="#FF3A44"/>
<stop offset="1" stop-color="#C31162"/>
</linearGradient>
<linearGradient id="paint3_linear_109_395" x1="7.29729" y1="0.176228" x2="17.4598" y2="10.3387" gradientUnits="userSpaceOnUse">
<stop stop-color="#32A071"/>
<stop offset="0.0685" stop-color="#2DA771"/>
<stop offset="0.4762" stop-color="#15CF74"/>
<stop offset="0.8009" stop-color="#06E775"/>
<stop offset="1" stop-color="#00F076"/>
</linearGradient>
<linearGradient id="paint4_linear_109_395" x1="24.827" y1="22.296" x2="2.06871" y2="45.0544" gradientUnits="userSpaceOnUse">
<stop stop-color="#CC2E36"/>
<stop offset="1" stop-color="#9C0E4E"/>
</linearGradient>
<linearGradient id="paint5_linear_109_395" x1="21.7998" y1="8.70962" x2="5.01728" y2="25.4921" gradientUnits="userSpaceOnUse">
<stop stop-color="#008DE0"/>
<stop offset="0.00657445" stop-color="#008DE0"/>
<stop offset="0.2601" stop-color="#00A7E0"/>
<stop offset="0.5122" stop-color="#00B8E0"/>
<stop offset="0.7604" stop-color="#00C4E0"/>
<stop offset="1" stop-color="#00C7E0"/>
</linearGradient>
<linearGradient id="paint6_linear_109_395" x1="33.8344" y1="20.0014" x2="9.63743" y2="20.0014" gradientUnits="userSpaceOnUse">
<stop stop-color="#E0C500"/>
<stop offset="0.4087" stop-color="#E0A600"/>
<stop offset="0.7754" stop-color="#E09100"/>
<stop offset="1" stop-color="#E08900"/>
</linearGradient>
<linearGradient id="paint7_linear_109_395" x1="33.8344" y1="20.0014" x2="9.63742" y2="20.0014" gradientUnits="userSpaceOnUse">
<stop stop-color="#FFE840"/>
<stop offset="0.4087" stop-color="#FFCE40"/>
<stop offset="0.7754" stop-color="#FFBC40"/>
<stop offset="1" stop-color="#FFB540"/>
</linearGradient>
<linearGradient id="paint8_linear_109_395" x1="21.7997" y1="8.70975" x2="5.0173" y2="25.4922" gradientUnits="userSpaceOnUse">
<stop stop-color="#40B8FF"/>
<stop offset="0.00657445" stop-color="#40B9FF"/>
<stop offset="0.2601" stop-color="#40CEFF"/>
<stop offset="0.5122" stop-color="#40DDFF"/>
<stop offset="0.7604" stop-color="#40E7FF"/>
<stop offset="1" stop-color="#40EAFF"/>
</linearGradient>
<linearGradient id="paint9_linear_109_395" x1="7.29732" y1="0.176224" x2="17.4598" y2="10.3387" gradientUnits="userSpaceOnUse">
<stop stop-color="#65B895"/>
<stop offset="0.0685" stop-color="#62BD95"/>
<stop offset="0.4762" stop-color="#50DB97"/>
<stop offset="0.8009" stop-color="#44ED98"/>
<stop offset="1" stop-color="#40F498"/>
</linearGradient>
<clipPath id="clip0_109_395">
<rect width="135" height="40" fill="white"/>
</clipPath>
</defs>
</svg>
