<svg width="55" height="54" viewBox="0 0 55 54" fill="none" xmlns="http://www.w3.org/2000/svg">
<g id="Group 13">
<circle id="Ellipse 20" cx="27.3672" cy="27" r="27" fill="#CC0829"/>
<mask id="mask0_115_868" style="mask-type:alpha" maskUnits="userSpaceOnUse" x="0" y="0" width="55" height="54">
<circle id="Ellipse 19" cx="27.3672" cy="27" r="27" fill="#333333"/>
</mask>
<g mask="url(#mask0_115_868)">
<path id="Vector" d="M25.6291 14.1025C24.5034 16.0146 23.5796 16.9822 23.4616 18.2004C23.1208 21.6492 31.4305 25.7914 34.1905 23.9434C35.2517 23.2345 35.2273 21.1075 36.5825 20.5867C37.9378 20.066 41.9408 19.9237 41.6673 16.1936C41.3938 12.4634 36.7825 11.6596 37.2482 12.6456C37.7457 13.6875 39.4646 9.82207 36.0201 8.19594C32.2184 6.40316 31.5954 9.37473 32.0986 9.30233C32.6715 9.21801 29.7913 5.02549 26.4123 7.56508C22.8177 10.2641 26.1917 13.1256 25.6225 14.093L25.6291 14.1025Z" fill="white"/>
<circle id="Ellipse 18" cx="24.3399" cy="33.2432" r="9.08109" fill="white"/>
<path id="Rectangle 20" d="M11.3672 51.4054C11.3672 44.2406 17.1754 38.4324 24.3402 38.4324C31.505 38.4324 37.3132 44.2406 37.3132 51.4054V54H11.3672V51.4054Z" fill="white"/>
</g>
</g>
</svg>
