<svg width="14" height="14" viewBox="0 0 14 14" fill="none" xmlns="http://www.w3.org/2000/svg">
<path fill-rule="evenodd" clip-rule="evenodd" d="M14 7C14 10.866 10.866 14 7 14C3.13401 14 0 10.866 0 7C0 3.13401 3.13401 0 7 0C10.866 0 14 3.13401 14 7ZM6.12737 3.16607L6.59762 8.07452C6.60077 8.11894 6.60968 8.16209 6.62369 8.203C6.64606 8.2687 6.68126 8.32751 6.72588 8.37653C6.76915 8.4242 6.82175 8.46311 6.88133 8.48983C6.91955 8.50706 6.96025 8.51913 7.00254 8.52527L9.95149 9.03498C10.2084 9.07938 10.4511 8.89802 10.4936 8.62991C10.5361 8.3618 10.3624 8.10846 10.1055 8.06406L7.50104 7.61389L7.06554 3.06814C7.03964 2.79773 6.80862 2.60044 6.54955 2.62748C6.29048 2.65452 6.10147 2.89566 6.12737 3.16607Z" fill="#333333"/>
</svg>
