<svg width="61" height="80" viewBox="0 0 61 80" fill="none" xmlns="http://www.w3.org/2000/svg">
<g clip-path="url(#clip0_114_24)">
<path d="M2.69208 56.3731C3.16922 53.8209 3.84672 51.5567 4.7246 49.5807C5.60596 47.586 6.76275 46.1056 8.24321 45.0906C9.7013 44.0906 11.5357 43.7973 13.7654 44.2141C15.1448 44.472 16.3272 45.1558 17.3351 46.2504C18.3429 47.345 19.0509 48.7885 19.5002 50.5692C19.9496 52.3499 20.0185 54.3872 19.7293 56.6661C19.6168 57.6863 19.4526 58.7738 19.2591 59.9138C19.0655 61.0537 18.8371 62.3799 18.5481 63.9262C18.064 66.5157 17.0812 68.53 15.5997 69.969C14.1182 71.408 12.1131 71.8815 9.54333 71.4011C7.29474 70.9807 5.58872 70.0641 4.42875 68.6326C3.26878 67.201 2.57876 65.4524 2.33134 63.3239C2.08392 61.1953 2.20301 58.8846 2.67318 56.3696L2.69208 56.3731ZM21.25 60.9801C21.8734 57.6454 22.8369 55.1069 24.1663 53.331C25.4956 51.555 26.9816 50.4061 28.65 49.8503C30.3184 49.2946 31.9822 49.1815 33.6639 49.4959C35.818 49.8986 37.5275 50.7966 38.7959 52.1713C40.0608 53.5646 40.897 55.2634 41.2941 57.3235C41.6947 59.365 41.6652 61.6154 41.2054 64.0745C40.4706 68.0053 39.0511 70.7863 36.9316 72.3952C34.8086 74.0228 32.3033 74.5571 29.4123 74.0166C27.1637 73.5962 25.3612 72.7772 24.0271 71.5445C22.6931 70.3118 21.7997 68.8144 21.3349 67.0115C20.8702 65.2087 20.8545 63.2005 21.2724 60.965L21.25 60.9801ZM17.7307 53.1305C18.6175 51.0018 19.5302 49.5722 20.5064 48.8485C21.4826 48.1248 22.4697 47.8659 23.4522 48.0496C24.227 48.1944 24.8759 48.4892 25.3766 48.9492C25.8773 49.4091 26.2765 49.8886 26.545 50.4401C26.8135 50.9916 26.9531 51.4997 26.9864 51.9494L23.6055 56.3303C23.5126 55.6767 23.3163 55.158 23.0319 54.7963C22.7475 54.4347 22.4352 54.222 22.0951 54.1585C21.6227 54.0701 21.1617 54.2346 20.6898 54.667C20.2178 55.0993 19.8965 55.7719 19.7259 56.6848L17.7461 53.1526L17.7307 53.1305ZM7.46869 57.4975C7.25972 58.6153 7.19199 59.6052 7.25505 60.5232C7.32159 61.4225 7.57064 62.1825 7.96789 62.7773C8.36515 63.3722 8.97774 63.7566 9.79025 63.9085C10.5083 64.0428 11.0946 63.9403 11.5834 63.6268C12.0723 63.3133 12.4532 62.8446 12.7158 62.2767C13.0008 61.6937 13.1948 61.0745 13.3167 60.4224L14.1665 55.8768C14.278 55.2807 14.3069 54.7077 14.2532 54.1578C14.1996 53.6079 13.9928 53.145 13.6363 52.7506C13.2798 52.3562 12.7253 52.079 11.9695 51.9377C11.2137 51.7964 10.5225 51.9371 9.93018 52.3855C9.33789 52.834 8.84304 53.4934 8.42326 54.379C8.02237 55.268 7.71048 56.3087 7.48758 57.501L7.46869 57.4975ZM27.2709 61.4116C27.0758 62.4548 27.0822 63.3622 27.2676 64.1488C27.453 64.9354 27.8433 65.5675 28.4196 66.0416C28.9924 66.5343 29.7512 66.869 30.677 67.0421C31.4329 67.1834 32.1514 67.1056 32.7949 66.8017C33.4573 66.5014 33.9964 66.0237 34.4619 65.4167C34.9085 64.806 35.2179 64.0927 35.3711 63.273C35.6219 61.9316 35.5613 60.6863 35.1706 59.5336C34.7799 58.3808 33.8605 57.6498 32.3866 57.3743C31.0073 57.1164 29.8809 57.3878 28.9922 58.1664C28.1035 58.9451 27.5286 60.033 27.2674 61.4302L27.2709 61.4116ZM33.121 72.5891L37.5913 68.9709C38.1989 69.2773 38.8284 69.7806 39.4609 70.4773C40.0933 71.1739 40.6586 71.9159 41.1687 72.7439C41.6788 73.5719 42.0224 74.3496 42.2371 75.0838C41.8552 75.2438 41.3012 75.4873 40.6165 75.8027C39.9317 76.1181 39.228 76.43 38.5174 76.7792C37.8068 77.1284 37.2046 77.4207 36.7296 77.6597C36.6103 77.2518 36.4413 76.796 36.2191 76.311C35.9969 75.826 35.718 75.3304 35.4167 74.8499C35.0965 74.3658 34.7469 73.9342 34.3715 73.5362C33.9773 73.1347 33.5656 72.8264 33.1399 72.5926L33.121 72.5891Z" fill="#CC0829"/>
<path d="M19.9087 19.9314C17.3011 24.3605 15.1611 26.6019 14.8878 29.4236C14.0983 37.4125 33.347 47.0073 39.7402 42.7268C42.1984 41.0848 42.1417 36.1576 45.2811 34.9514C48.4204 33.7452 57.693 33.4156 57.0593 24.7751C56.4257 16.1346 45.7442 14.2726 46.823 16.5566C47.9754 18.9701 51.9569 10.0162 43.9782 6.2495C35.1721 2.09672 33.7288 8.98004 34.8944 8.81233C36.2216 8.617 29.5498 -1.09451 21.7228 4.78818C13.3964 11.0403 21.2118 17.6686 19.8933 19.9093L19.9087 19.9314Z" fill="#CC0829"/>
</g>
<defs>
<clipPath id="clip0_114_24">
<rect width="48" height="72" fill="white" transform="translate(13.231) rotate(10.5891)"/>
</clipPath>
</defs>
</svg>
