<svg width="100" height="46" viewBox="0 0 100 46" fill="none" xmlns="http://www.w3.org/2000/svg">
<path d="M15.4698 45.2544C13.6113 45.2544 11.9313 45.0752 10.4148 44.7242C8.89827 44.3733 7.69399 43.7536 6.7945 42.8576C5.89501 41.969 5.44897 40.7221 5.44897 39.1242C5.44897 38.1312 5.76863 37.2128 6.41537 36.3765C7.06212 35.5402 7.97648 34.8384 9.18076 34.3008C10.385 33.7557 11.8049 33.4347 13.4478 33.3451C14.1837 33.3003 14.9643 33.2629 15.7969 33.248C16.622 33.233 17.5959 33.2181 18.7109 33.2181C20.5991 33.2181 22.1528 33.6362 23.3571 34.48C24.5614 35.3237 25.1709 36.6677 25.1709 38.5194C25.1709 40.1472 24.7472 41.4538 23.8923 42.4469C23.0374 43.44 21.8852 44.1568 20.4282 44.5973C18.9711 45.0378 17.3208 45.2618 15.4772 45.2618L15.4698 45.2544ZM16.2726 31.7099C13.8492 31.7099 11.9238 31.3664 10.504 30.672C9.08412 29.9776 8.06569 29.0891 7.46354 27.9915C6.85397 26.9013 6.55662 25.7515 6.55662 24.5419C6.55662 22.9888 6.95804 21.6821 7.76833 20.6144C8.57862 19.5541 9.67883 18.7477 11.069 18.2027C12.4591 17.6576 14.0499 17.3888 15.834 17.3888C18.7035 17.3888 20.8445 18.0235 22.2643 19.2853C23.6842 20.5547 24.3978 22.2272 24.3978 24.3179C24.3978 25.9456 24.0559 27.3045 23.372 28.3947C22.688 29.4848 21.7365 30.3136 20.5248 30.8661C19.3131 31.4187 17.8932 31.7024 16.2801 31.7024L16.2726 31.7099ZM11.2102 35.1818C9.58962 34.8458 8.46711 34.3904 7.8278 33.8005C7.18849 33.2181 6.87627 32.5611 6.87627 31.8443C6.87627 31.2843 7.00265 30.7989 7.24796 30.3808C7.49328 29.9627 7.79807 29.6341 8.14746 29.3803C8.49685 29.1264 8.83137 28.9547 9.15846 28.8725L12.6895 30.6645C12.2361 30.8213 11.9015 31.0229 11.6785 31.2619C11.4555 31.5008 11.3514 31.7547 11.3514 32.0085C11.3514 32.3445 11.5299 32.6507 11.8941 32.9195C12.2584 33.1957 12.7713 33.3301 13.4403 33.3301L11.2102 35.1744V35.1818ZM15.6333 41.7824C16.4436 41.7824 17.1647 41.7002 17.7891 41.5285C18.421 41.3642 18.9191 41.0954 19.2908 40.737C19.6625 40.3786 19.8409 39.9082 19.8409 39.3184C19.8409 38.8032 19.6922 38.4 19.4023 38.1088C19.1124 37.8176 18.7407 37.6085 18.2946 37.489C17.8486 37.3696 17.3877 37.3098 16.912 37.3098H13.5965C13.1579 37.3098 12.749 37.3696 12.3773 37.4816C12.0056 37.5936 11.7008 37.8026 11.4704 38.1013C11.2399 38.4 11.121 38.8256 11.121 39.3706C11.121 39.9157 11.3143 40.3712 11.7083 40.7296C12.1023 41.088 12.6375 41.3493 13.314 41.521C13.9905 41.6853 14.7636 41.7749 15.6333 41.7749V41.7824ZM15.7894 27.4464C16.5477 27.4464 17.1944 27.3269 17.7148 27.088C18.2352 26.8491 18.6366 26.4981 18.9042 26.0277C19.1718 25.5648 19.3056 24.9973 19.3056 24.3253C19.3056 23.7728 19.157 23.2949 18.8522 22.8768C18.5474 22.4587 18.1534 22.1301 17.6553 21.8987C17.1647 21.6672 16.6146 21.5477 16.0199 21.5477C15.0461 21.5477 14.1763 21.7568 13.4032 22.1749C12.6375 22.5931 12.2509 23.3323 12.2509 24.4C12.2509 25.3931 12.5855 26.1472 13.2619 26.6699C13.931 27.1925 14.7784 27.4464 15.7894 27.4464ZM22.8888 21.9061L19.7517 19.2555C19.8929 18.7926 20.168 18.2923 20.562 17.7622C20.956 17.232 21.4169 16.7318 21.9372 16.2763C22.4576 15.8134 22.9557 15.4699 23.4463 15.231C23.6098 15.4848 23.8477 15.8283 24.1599 16.2688C24.4722 16.7094 24.7918 17.1574 25.1263 17.6128C25.4609 18.0683 25.7433 18.4416 25.9812 18.7403C25.7062 18.8747 25.4163 19.0464 25.0966 19.2704C24.7844 19.4944 24.4722 19.7408 24.1748 20.0245C23.8775 20.3083 23.6173 20.6069 23.3868 20.928C23.1638 21.2491 22.9928 21.5776 22.8888 21.9136V21.9061Z" fill="#CC0829"/>
<path d="M39.6595 18.7849C39.9569 18.6804 40.3806 18.5982 40.9381 18.546C41.4957 18.4937 42.0309 18.4638 42.5513 18.4638C42.9899 18.4638 43.4805 18.4788 44.0157 18.5161C44.551 18.5534 44.9821 18.5908 45.3167 18.643C45.4728 19.6137 45.5917 20.5844 45.6735 21.57C45.7552 22.5556 45.7999 23.5262 45.7999 24.482C45.7999 26.2366 45.6512 27.8942 45.3464 29.4473C45.0416 31.0003 44.5435 32.3667 43.8596 33.5539C43.1757 34.7411 42.2465 35.667 41.0942 36.339C39.942 37.011 38.5221 37.3545 36.8272 37.3545C35.0282 37.3545 33.5489 36.9961 32.3818 36.2867C31.2147 35.5774 30.3077 34.5843 29.6536 33.315C28.9994 32.0457 28.5459 30.5523 28.2857 28.85C28.033 27.1476 27.8992 25.3108 27.8992 23.3396C27.8992 22.466 27.9215 21.5774 27.9586 20.6814C28.0032 19.778 28.0553 18.882 28.1296 17.986C28.4418 17.9636 28.8433 17.9412 29.3488 17.9263C29.8543 17.9113 30.3152 17.9039 30.7315 17.9188C31.3262 17.9188 31.9209 17.9487 32.523 18.0159C33.1252 18.083 33.5935 18.1652 33.9429 18.2772C33.8611 19.091 33.7868 19.9646 33.7273 20.9054C33.6678 21.8462 33.6381 22.787 33.6381 23.7278C33.6381 25.3033 33.7422 26.7294 33.9503 27.9913C34.1585 29.2606 34.5079 30.2612 34.9911 31.0003C35.4817 31.7395 36.1359 32.1129 36.9685 32.1129C37.7564 32.1129 38.3809 31.7769 38.8492 31.1123C39.3175 30.4403 39.6595 29.5444 39.8676 28.4169C40.0758 27.2894 40.1799 26.0276 40.1799 24.6238C40.1799 23.571 40.1278 22.5332 40.0312 21.5177C39.9346 20.5022 39.8007 19.5913 39.6446 18.7998L39.6595 18.7849Z" fill="#CC0829"/>
<path d="M56.3782 37.7278C54.9881 37.7278 53.7095 37.5561 52.5498 37.2201C51.3901 36.8766 50.4088 36.4809 49.606 36.018C48.8031 35.555 48.2233 35.1444 47.8665 34.771C47.9408 34.547 48.0746 34.2111 48.2827 33.778C48.4909 33.3449 48.7362 32.8671 49.0261 32.3519C49.3086 31.8367 49.5985 31.3588 49.881 30.9183C50.1635 30.4777 50.4237 30.1492 50.6467 29.9327C51.2191 30.4255 51.8361 30.9033 52.5052 31.3737C53.1742 31.8441 53.8581 32.2324 54.5569 32.5311C55.2557 32.8297 55.9099 32.9791 56.5194 32.9791C56.9952 32.9791 57.4264 32.9193 57.8055 32.7924C58.1846 32.6655 58.4894 32.4788 58.705 32.2249C58.9206 31.9711 59.0321 31.6649 59.0321 31.2916C59.0321 30.8585 58.8239 30.4479 58.4151 30.0447C58.0062 29.6415 57.4784 29.2681 56.8391 28.9097C56.1998 28.5513 55.5233 28.2303 54.8245 27.9391C53.8581 27.5433 52.9661 27.0804 52.1335 26.5503C51.3009 26.0201 50.6318 25.3631 50.1189 24.5791C49.606 23.7951 49.3532 22.8169 49.3532 21.6521C49.3532 20.4874 49.7026 19.457 50.4088 18.6431C51.1076 17.8292 52.0294 17.217 53.1668 16.7988C54.3042 16.3807 55.5159 16.1716 56.8168 16.1716C58.0434 16.1716 59.2848 16.3434 60.5486 16.6794C61.8123 17.0228 62.8382 17.5082 63.6336 18.1428C63.5593 18.3668 63.4106 18.7178 63.1802 19.1807C62.9497 19.6436 62.6672 20.1439 62.3401 20.674C62.013 21.2042 61.6637 21.6895 61.2994 22.1375C60.8088 21.7193 60.1992 21.3162 59.4632 20.9354C58.7273 20.5546 57.9542 20.3604 57.1439 20.3604C56.7425 20.3604 56.341 20.4052 55.9396 20.4874C55.5382 20.5695 55.2111 20.7188 54.9583 20.9354C54.7056 21.1519 54.5718 21.4431 54.5718 21.8164C54.5718 22.1897 54.7056 22.4959 54.9806 22.7721C55.2557 23.0559 55.6571 23.3247 56.1849 23.586C56.7127 23.8473 57.3372 24.1236 58.0508 24.4073C58.7645 24.6911 59.493 25.0345 60.2289 25.4228C60.9649 25.8111 61.6488 26.274 62.2732 26.8116C62.8977 27.3492 63.4032 27.9764 63.7823 28.6857C64.1614 29.3951 64.3547 30.2089 64.3547 31.1348C64.3547 32.6057 63.9904 33.8302 63.2694 34.8084C62.5408 35.7865 61.5744 36.5182 60.3702 37.0036C59.1659 37.4889 57.8427 37.7278 56.4005 37.7278H56.3782Z" fill="#CC0829"/>
<path d="M81.1998 33.9646C80.9768 34.4052 80.62 34.8755 80.1368 35.3683C79.6536 35.8611 79.0291 36.2867 78.2634 36.6377C77.4977 36.9886 76.5685 37.1678 75.4683 37.1678C74.0261 37.1678 72.8516 36.8617 71.9447 36.2569C71.0377 35.6446 70.3613 34.8382 69.9301 33.8228C69.4989 32.8073 69.2759 31.6948 69.2759 30.4926C69.2759 29.8356 69.2834 29.1337 69.3057 28.387C69.3205 27.6404 69.3428 26.9012 69.3651 26.162C69.3874 25.4302 69.4172 24.7284 69.4469 24.0638C69.4766 23.3993 69.5064 22.8169 69.5361 22.3166C69.5658 21.8164 69.5881 21.4281 69.5956 21.1519C68.6589 21.2489 67.7892 21.3535 66.9937 21.4655C66.1983 21.5775 65.6408 21.6745 65.336 21.7417C65.217 21.0697 65.1278 20.3903 65.0684 19.6959C65.0089 19.0015 64.9643 18.3967 64.9346 17.8889C64.9048 17.3737 64.89 17.0601 64.89 16.9407C65.5813 16.8436 66.3172 16.7615 67.1052 16.6793C67.8932 16.6047 68.7184 16.5449 69.5881 16.5076C69.5733 16.2239 69.5658 15.7759 69.551 15.1636C69.5361 14.5513 69.5212 14.0063 69.4989 13.5135C69.4841 13.0729 69.4618 12.6249 69.4246 12.1769C69.3874 11.7289 69.3577 11.3705 69.3354 11.0943L74.6134 10.6313C74.6134 10.7732 74.6134 11.1092 74.6208 11.6319C74.6208 12.1545 74.6283 12.7892 74.6283 13.5284C74.6283 13.9017 74.6283 14.3273 74.6432 14.8127C74.658 15.298 74.6654 15.7684 74.6803 16.2388C75.0743 16.2164 75.5278 16.194 76.0556 16.1641C76.5834 16.1343 76.9922 16.1193 77.3045 16.1119C77.8025 16.0895 78.256 16.0745 78.6574 16.0671C79.0588 16.0596 79.4008 16.0596 79.6684 16.0596C79.936 16.0596 80.1145 16.0596 80.2111 16.0745C80.2854 16.6345 80.33 17.3513 80.3523 18.2175C80.3746 19.0836 80.3895 19.8527 80.3895 20.5172C80.2706 20.5023 79.884 20.5097 79.2298 20.5247C78.5757 20.5396 77.9363 20.5695 77.3045 20.6068C76.8659 20.6217 76.3752 20.6441 75.84 20.6815C75.3048 20.7188 74.881 20.7561 74.5762 20.786C74.5614 21.0399 74.5465 21.3833 74.5316 21.8164C74.5168 22.2494 74.4945 22.7422 74.4796 23.2873C74.4647 23.8324 74.4424 24.3924 74.4276 24.9748C74.4127 25.5572 74.3978 26.1097 74.383 26.6473C74.3681 27.1849 74.3681 27.6628 74.3681 28.0809C74.3681 28.8724 74.4053 29.5742 74.487 30.2014C74.5614 30.8286 74.7398 31.3214 75.0074 31.6873C75.275 32.0532 75.6913 32.2324 76.2489 32.2324C76.6205 32.2324 76.9328 32.1278 77.193 31.9113C77.4531 31.6948 77.6687 31.4409 77.8471 31.1497C78.0181 30.8585 78.1742 30.5972 78.3006 30.3732C78.4567 30.5897 78.6723 30.8734 78.9548 31.2244C79.2373 31.5753 79.5346 31.9412 79.8468 32.3294C80.1591 32.7102 80.449 33.0537 80.7017 33.3524C80.9545 33.651 81.1255 33.8526 81.2072 33.9646H81.1998Z" fill="#CC0829"/>
<path d="M91.0794 36.705C87.9274 36.705 85.5561 35.8687 83.9578 34.1887C82.3669 32.5087 81.5641 30.0671 81.5641 26.8714C81.5641 24.7359 81.9729 22.9589 82.7981 21.5402C83.6158 20.1215 84.7606 19.0613 86.2177 18.3445C87.6747 17.6277 89.3622 17.2693 91.2727 17.2693C93.1832 17.2693 94.8409 17.7173 96.1344 18.6133C97.4279 19.5093 98.3943 20.7487 99.0336 22.3242C99.6729 23.8997 100 25.7215 100 27.7898C100 29.5967 99.658 31.1647 98.9667 32.5013C98.2754 33.8378 97.2718 34.8756 95.9411 35.6074C94.6179 36.3391 92.9973 36.7124 91.0794 36.7124V36.705ZM90.8861 31.5679C91.5403 31.5679 92.1201 31.4559 92.6256 31.2245C93.1311 31.0005 93.5623 30.6719 93.9117 30.2463C94.2611 29.8207 94.5287 29.3205 94.7071 28.753C94.8855 28.1781 94.9747 27.5509 94.9747 26.8714C94.9747 25.8111 94.8261 24.8703 94.5213 24.049C94.2165 23.2277 93.7704 22.593 93.1832 22.1301C92.5959 21.6671 91.8674 21.4431 90.9976 21.4431C90.061 21.4431 89.2878 21.6821 88.6931 22.1599C88.0984 22.6378 87.6598 23.265 87.3848 24.0341C87.1023 24.8031 86.9685 25.6245 86.9685 26.4981C86.9685 27.969 87.303 29.1786 87.9795 30.1343C88.6485 31.0901 89.6224 31.5679 90.8935 31.5679H90.8861Z" fill="#CC0829"/>
<path d="M14.6001 7.98084C15.2765 9.88483 15.9307 10.9078 15.8341 12.0203C15.5665 15.1712 7.56764 17.4933 5.44156 15.3728C4.62384 14.559 4.99553 12.655 3.88789 11.9606C2.78025 11.2662 -0.721093 10.4747 0.133798 7.17444C0.98869 3.87418 5.18138 3.92645 4.60897 4.73284C3.99939 5.58404 3.1222 1.82832 6.42283 0.947253C10.0654 -0.0234111 10.1249 2.74672 9.69372 2.59738C9.20308 2.42565 12.4294 -0.852209 14.9866 1.99258C17.7074 5.01658 14.2655 7.01764 14.6075 7.98084H14.6001Z" fill="#CC0829"/>
</svg>
