<svg width="100" height="45" viewBox="0 0 100 45" fill="none" xmlns="http://www.w3.org/2000/svg">
<path d="M15.4698 44.5088C13.6113 44.5088 11.9313 44.3296 10.4148 43.9786C8.89827 43.6277 7.69399 43.008 6.7945 42.112C5.89501 41.2234 5.44897 39.9765 5.44897 38.3786C5.44897 37.3856 5.76863 36.4672 6.41537 35.6309C7.06212 34.7946 7.97648 34.0928 9.18076 33.5552C10.385 33.0101 11.8049 32.689 13.4478 32.5994C14.1837 32.5546 14.9643 32.5173 15.7969 32.5024C16.622 32.4874 17.5959 32.4725 18.7109 32.4725C20.5991 32.4725 22.1528 32.8906 23.3571 33.7344C24.5614 34.5781 25.1709 35.9221 25.1709 37.7738C25.1709 39.4016 24.7472 40.7082 23.8923 41.7013C23.0374 42.6944 21.8852 43.4112 20.4282 43.8517C18.9711 44.2922 17.3208 44.5162 15.4772 44.5162L15.4698 44.5088ZM16.2726 30.9642C13.8492 30.9642 11.9238 30.6208 10.504 29.9264C9.08412 29.232 8.06569 28.3435 7.46354 27.2459C6.85397 26.1557 6.55662 25.0059 6.55662 23.7963C6.55662 22.2432 6.95804 20.9365 7.76833 19.8688C8.57862 18.8085 9.67883 18.0021 11.069 17.4571C12.4591 16.912 14.0499 16.6432 15.834 16.6432C18.7035 16.6432 20.8445 17.2779 22.2643 18.5397C23.6842 19.8091 24.3978 21.4816 24.3978 23.5723C24.3978 25.2 24.0559 26.5589 23.372 27.6491C22.688 28.7392 21.7365 29.568 20.5248 30.1205C19.3131 30.673 17.8932 30.9568 16.2801 30.9568L16.2726 30.9642ZM11.2102 34.4362C9.58962 34.1002 8.46711 33.6448 7.8278 33.0549C7.18849 32.4725 6.87627 31.8154 6.87627 31.0986C6.87627 30.5387 7.00265 30.0533 7.24796 29.6352C7.49328 29.2171 7.79807 28.8885 8.14746 28.6347C8.49685 28.3808 8.83137 28.2091 9.15846 28.1269L12.6895 29.9189C12.2361 30.0757 11.9015 30.2773 11.6785 30.5162C11.4555 30.7552 11.3514 31.009 11.3514 31.2629C11.3514 31.5989 11.5299 31.905 11.8941 32.1738C12.2584 32.4501 12.7713 32.5845 13.4403 32.5845L11.2102 34.4288V34.4362ZM15.6333 41.0368C16.4436 41.0368 17.1647 40.9546 17.7891 40.7829C18.421 40.6186 18.9191 40.3498 19.2908 39.9914C19.6625 39.633 19.8409 39.1626 19.8409 38.5728C19.8409 38.0576 19.6922 37.6544 19.4023 37.3632C19.1124 37.072 18.7407 36.8629 18.2946 36.7434C17.8486 36.624 17.3877 36.5642 16.912 36.5642H13.5965C13.1579 36.5642 12.749 36.624 12.3773 36.736C12.0056 36.848 11.7008 37.057 11.4704 37.3557C11.2399 37.6544 11.121 38.08 11.121 38.625C11.121 39.1701 11.3143 39.6256 11.7083 39.984C12.1023 40.3424 12.6375 40.6037 13.314 40.7754C13.9905 40.9397 14.7636 41.0293 15.6333 41.0293V41.0368ZM15.7894 26.7008C16.5477 26.7008 17.1944 26.5813 17.7148 26.3424C18.2352 26.1035 18.6366 25.7525 18.9042 25.2821C19.1718 24.8192 19.3056 24.2517 19.3056 23.5797C19.3056 23.0272 19.157 22.5493 18.8522 22.1312C18.5474 21.7131 18.1534 21.3845 17.6553 21.1531C17.1647 20.9216 16.6146 20.8021 16.0199 20.8021C15.0461 20.8021 14.1763 21.0112 13.4032 21.4293C12.6375 21.8475 12.2509 22.5867 12.2509 23.6544C12.2509 24.6475 12.5855 25.4016 13.2619 25.9243C13.931 26.4469 14.7784 26.7008 15.7894 26.7008ZM22.8888 21.1605L19.7517 18.5099C19.8929 18.0469 20.168 17.5467 20.562 17.0165C20.956 16.4864 21.4169 15.9861 21.9372 15.5307C22.4576 15.0677 22.9557 14.7243 23.4463 14.4854C23.6098 14.7392 23.8477 15.0827 24.1599 15.5232C24.4722 15.9637 24.7918 16.4117 25.1263 16.8672C25.4609 17.3227 25.7433 17.696 25.9812 17.9947C25.7062 18.1291 25.4163 18.3008 25.0966 18.5248C24.7844 18.7488 24.4722 18.9952 24.1748 19.2789C23.8775 19.5627 23.6173 19.8613 23.3868 20.1824C23.1638 20.5035 22.9928 20.832 22.8888 21.168V21.1605Z" fill="#FFEDE6"/>
<path d="M39.6595 18.0394C39.9569 17.9349 40.3806 17.8528 40.9381 17.8005C41.4957 17.7482 42.0309 17.7184 42.5513 17.7184C42.9899 17.7184 43.4805 17.7333 44.0157 17.7706C44.551 17.808 44.9821 17.8453 45.3167 17.8976C45.4728 18.8682 45.5917 19.8389 45.6735 20.8245C45.7552 21.8101 45.7999 22.7808 45.7999 23.7365C45.7999 25.4911 45.6512 27.1487 45.3464 28.7018C45.0416 30.2549 44.5435 31.6213 43.8596 32.8085C43.1757 33.9957 42.2465 34.9215 41.0942 35.5935C39.942 36.2655 38.5221 36.609 36.8272 36.609C35.0282 36.609 33.5489 36.2506 32.3818 35.5412C31.2147 34.8319 30.3077 33.8389 29.6536 32.5695C28.9994 31.3002 28.5459 29.8069 28.2857 28.1045C28.033 26.4021 27.8992 24.5653 27.8992 22.5941C27.8992 21.7205 27.9215 20.832 27.9586 19.936C28.0032 19.0325 28.0553 18.1365 28.1296 17.2405C28.4418 17.2181 28.8433 17.1957 29.3488 17.1808C29.8543 17.1658 30.3152 17.1584 30.7315 17.1733C31.3262 17.1733 31.9209 17.2032 32.523 17.2704C33.1252 17.3376 33.5935 17.4197 33.9429 17.5317C33.8611 18.3456 33.7868 19.2192 33.7273 20.16C33.6678 21.1008 33.6381 22.0416 33.6381 22.9824C33.6381 24.5578 33.7422 25.9839 33.9503 27.2458C34.1585 28.5151 34.5079 29.5157 34.9911 30.2549C35.4817 30.9941 36.1359 31.3674 36.9685 31.3674C37.7564 31.3674 38.3809 31.0314 38.8492 30.3669C39.3175 29.6949 39.6595 28.7989 39.8676 27.6714C40.0758 26.5439 40.1799 25.2821 40.1799 23.8783C40.1799 22.8256 40.1278 21.7877 40.0312 20.7722C39.9346 19.7568 39.8007 18.8458 39.6446 18.0544L39.6595 18.0394Z" fill="#FFEDE6"/>
<path d="M56.3782 36.9824C54.9881 36.9824 53.7095 36.8106 52.5498 36.4746C51.3901 36.1312 50.4088 35.7354 49.606 35.2725C48.8031 34.8096 48.2233 34.3989 47.8665 34.0256C47.9408 33.8016 48.0746 33.4656 48.2827 33.0325C48.4909 32.5994 48.7362 32.1216 49.0261 31.6064C49.3086 31.0912 49.5985 30.6133 49.881 30.1728C50.1635 29.7322 50.4237 29.4037 50.6467 29.1872C51.2191 29.68 51.8361 30.1578 52.5052 30.6282C53.1742 31.0986 53.8581 31.4869 54.5569 31.7856C55.2557 32.0842 55.9099 32.2336 56.5194 32.2336C56.9952 32.2336 57.4264 32.1738 57.8055 32.0469C58.1846 31.92 58.4894 31.7333 58.705 31.4794C58.9206 31.2256 59.0321 30.9194 59.0321 30.5461C59.0321 30.113 58.8239 29.7024 58.4151 29.2992C58.0062 28.896 57.4784 28.5226 56.8391 28.1642C56.1998 27.8058 55.5233 27.4848 54.8245 27.1936C53.8581 26.7978 52.9661 26.3349 52.1335 25.8048C51.3009 25.2747 50.6318 24.6176 50.1189 23.8336C49.606 23.0496 49.3532 22.0715 49.3532 20.9067C49.3532 19.7419 49.7026 18.7115 50.4088 17.8976C51.1076 17.0837 52.0294 16.4715 53.1668 16.0533C54.3042 15.6352 55.5159 15.4261 56.8168 15.4261C58.0434 15.4261 59.2848 15.5979 60.5486 15.9339C61.8123 16.2773 62.8382 16.7627 63.6336 17.3973C63.5593 17.6213 63.4106 17.9723 63.1802 18.4352C62.9497 18.8981 62.6672 19.3984 62.3401 19.9285C62.013 20.4587 61.6637 20.944 61.2994 21.392C60.8088 20.9739 60.1992 20.5707 59.4632 20.1899C58.7273 19.8091 57.9542 19.6149 57.1439 19.6149C56.7425 19.6149 56.341 19.6597 55.9396 19.7419C55.5382 19.824 55.2111 19.9733 54.9583 20.1899C54.7056 20.4064 54.5718 20.6976 54.5718 21.0709C54.5718 21.4443 54.7056 21.7504 54.9806 22.0267C55.2557 22.3104 55.6571 22.5792 56.1849 22.8405C56.7127 23.1019 57.3372 23.3781 58.0508 23.6619C58.7645 23.9456 59.493 24.2891 60.2289 24.6773C60.9649 25.0656 61.6488 25.5285 62.2732 26.0661C62.8977 26.6037 63.4032 27.2309 63.7823 27.9402C64.1614 28.6496 64.3547 29.4634 64.3547 30.3893C64.3547 31.8602 63.9904 33.0848 63.2694 34.0629C62.5408 35.041 61.5744 35.7728 60.3702 36.2581C59.1659 36.7434 57.8427 36.9824 56.4005 36.9824H56.3782Z" fill="#FFEDE6"/>
<path d="M81.1998 33.2191C80.9768 33.6597 80.62 34.1301 80.1368 34.6229C79.6536 35.1157 79.0291 35.5413 78.2634 35.8922C77.4977 36.2431 76.5685 36.4223 75.4683 36.4223C74.0261 36.4223 72.8516 36.1162 71.9447 35.5114C71.0377 34.8991 70.3613 34.0927 69.9301 33.0773C69.4989 32.0618 69.2759 30.9493 69.2759 29.7471C69.2759 29.0901 69.2834 28.3882 69.3057 27.6416C69.3205 26.8949 69.3428 26.1557 69.3651 25.4165C69.3874 24.6848 69.4172 23.9829 69.4469 23.3184C69.4766 22.6538 69.5064 22.0714 69.5361 21.5712C69.5658 21.0709 69.5881 20.6826 69.5956 20.4064C68.6589 20.5034 67.7892 20.608 66.9937 20.72C66.1983 20.832 65.6408 20.929 65.336 20.9962C65.217 20.3242 65.1278 19.6448 65.0684 18.9504C65.0089 18.256 64.9643 17.6512 64.9346 17.1434C64.9048 16.6282 64.89 16.3146 64.89 16.1952C65.5813 16.0981 66.3172 16.016 67.1052 15.9338C67.8932 15.8592 68.7184 15.7994 69.5881 15.7621C69.5733 15.4784 69.5658 15.0304 69.551 14.4181C69.5361 13.8059 69.5212 13.2608 69.4989 12.768C69.4841 12.3275 69.4618 11.8795 69.4246 11.4315C69.3874 10.9835 69.3577 10.6251 69.3354 10.3488L74.6134 9.88586C74.6134 10.0277 74.6134 10.3637 74.6208 10.8864C74.6208 11.4091 74.6283 12.0437 74.6283 12.7829C74.6283 13.1563 74.6283 13.5819 74.6432 14.0672C74.658 14.5525 74.6654 15.0229 74.6803 15.4933C75.0743 15.4709 75.5278 15.4485 76.0556 15.4186C76.5834 15.3888 76.9922 15.3738 77.3045 15.3664C77.8025 15.344 78.256 15.3291 78.6574 15.3216C79.0588 15.3141 79.4008 15.3141 79.6684 15.3141C79.936 15.3141 80.1145 15.3141 80.2111 15.3291C80.2854 15.889 80.33 16.6058 80.3523 17.472C80.3746 18.3381 80.3895 19.1072 80.3895 19.7717C80.2706 19.7568 79.884 19.7642 79.2298 19.7792C78.5757 19.7941 77.9363 19.824 77.3045 19.8613C76.8659 19.8762 76.3752 19.8986 75.84 19.936C75.3048 19.9733 74.881 20.0106 74.5762 20.0405C74.5614 20.2944 74.5465 20.6378 74.5316 21.0709C74.5168 21.504 74.4945 21.9968 74.4796 22.5418C74.4647 23.0869 74.4424 23.6469 74.4276 24.2293C74.4127 24.8117 74.3978 25.3642 74.383 25.9018C74.3681 26.4394 74.3681 26.9173 74.3681 27.3354C74.3681 28.1269 74.4053 28.8287 74.487 29.4559C74.5614 30.0831 74.7398 30.5759 75.0074 30.9418C75.275 31.3077 75.6913 31.4869 76.2489 31.4869C76.6205 31.4869 76.9328 31.3823 77.193 31.1658C77.4531 30.9493 77.6687 30.6954 77.8471 30.4042C78.0181 30.113 78.1742 29.8517 78.3006 29.6277C78.4567 29.8442 78.6723 30.1279 78.9548 30.4789C79.2373 30.8298 79.5346 31.1957 79.8468 31.5839C80.1591 31.9647 80.449 32.3082 80.7017 32.6069C80.9545 32.9055 81.1255 33.1071 81.2072 33.2191H81.1998Z" fill="#FFEDE6"/>
<path d="M91.0794 35.9594C87.9274 35.9594 85.5561 35.1231 83.9578 33.4431C82.3669 31.7631 81.5641 29.3215 81.5641 26.1258C81.5641 23.9903 81.9729 22.2133 82.7981 20.7946C83.6158 19.3759 84.7606 18.3157 86.2177 17.5989C87.6747 16.8821 89.3622 16.5237 91.2727 16.5237C93.1832 16.5237 94.8409 16.9717 96.1344 17.8677C97.4279 18.7637 98.3943 20.0031 99.0336 21.5786C99.6729 23.1541 100 24.9759 100 27.0442C100 28.8511 99.658 30.4191 98.9667 31.7556C98.2754 33.0922 97.2718 34.13 95.9411 34.8618C94.6179 35.5935 92.9973 35.9668 91.0794 35.9668V35.9594ZM90.8861 30.8223C91.5403 30.8223 92.1201 30.7103 92.6256 30.4789C93.1311 30.2549 93.5623 29.9263 93.9117 29.5007C94.2611 29.0751 94.5287 28.5749 94.7071 28.0074C94.8855 27.4325 94.9747 26.8053 94.9747 26.1258C94.9747 25.0655 94.8261 24.1247 94.5213 23.3034C94.2165 22.4821 93.7704 21.8474 93.1832 21.3845C92.5959 20.9215 91.8674 20.6975 90.9976 20.6975C90.061 20.6975 89.2878 20.9365 88.6931 21.4143C88.0984 21.8922 87.6598 22.5194 87.3848 23.2885C87.1023 24.0575 86.9685 24.8789 86.9685 25.7525C86.9685 27.2234 87.303 28.433 87.9795 29.3887C88.6485 30.3445 89.6224 30.8223 90.8935 30.8223H90.8861Z" fill="#FFEDE6"/>
<path d="M14.6001 7.23535C15.2765 9.13935 15.9307 10.1623 15.8341 11.2748C15.5665 14.4257 7.56764 16.7479 5.44156 14.6273C4.62384 13.8135 4.99553 11.9095 3.88789 11.2151C2.78025 10.5207 -0.721093 9.72921 0.133798 6.42896C0.98869 3.1287 5.18138 3.18096 4.60897 3.98736C3.99939 4.83856 3.1222 1.08283 6.42283 0.20177C10.0654 -0.768894 10.1249 2.00123 9.69372 1.8519C9.20308 1.68017 12.4294 -1.59769 14.9866 1.2471C17.7074 4.27109 14.2655 6.27216 14.6075 7.23535H14.6001Z" fill="#FFEDE6"/>
</svg>
