<svg width="92" height="91" viewBox="0 0 92 91" fill="none" xmlns="http://www.w3.org/2000/svg">
<circle cx="41.9599" cy="43.2379" r="40" fill="#FFEDE6"/>
<path fill-rule="evenodd" clip-rule="evenodd" d="M39.6438 5.26148L52.555 8.72103L51.6901 11.949C51.2124 13.7317 52.2703 15.5641 54.053 16.0417C55.8357 16.5194 57.6681 15.4615 58.1457 13.6788L59.0107 10.4508L71.9219 13.9104L71.0569 17.1384C70.5793 18.921 71.6372 20.7534 73.4199 21.2311C75.2025 21.7088 77.0349 20.6508 77.5126 18.8681L78.3775 15.6402L79.1846 15.8564C85.7211 17.6079 89.6002 24.3266 87.8487 30.8631L80.6332 57.7916C77.9019 52.948 73.3002 49.1638 67.5047 47.6109C56.0659 44.5459 44.3081 51.3342 41.2431 62.7731C39.2243 70.3073 41.4801 77.9798 46.5238 83.2157L12.8154 74.1836C6.27888 72.4321 2.39983 65.7134 4.15128 59.1769L16.8364 11.8354C18.5879 5.29888 25.3066 1.41983 31.8431 3.17128L33.1881 3.53169L32.3232 6.75968C31.8455 8.54237 32.9034 10.3747 34.6861 10.8524C36.4688 11.3301 38.3012 10.2722 38.7789 8.48947L39.6438 5.26148ZM76.7492 72.2869C78.9385 64.1163 74.0897 55.7179 65.9191 53.5286C57.7485 51.3393 49.3501 56.1881 47.1608 64.3587C44.9715 72.5294 49.8203 80.9277 57.9909 83.1171C66.1615 85.3064 74.5599 80.4576 76.7492 72.2869ZM60.9782 60.1329C61.1971 59.3158 62.037 58.8309 62.854 59.0499C63.6711 59.2688 64.156 60.1086 63.937 60.9257L61.955 68.3228L66.3933 69.5121C67.2103 69.731 67.6952 70.5708 67.4763 71.3879C67.2573 72.2049 66.4175 72.6898 65.6004 72.4709L59.6828 70.8853C58.8657 70.6663 58.3808 69.8265 58.5997 69.0094L60.9782 60.1329ZM29.4968 30.2191C31.2795 30.6968 33.1119 29.6389 33.5896 27.8562C34.0672 26.0735 33.0093 24.2411 31.2266 23.7634C29.4439 23.2858 27.6116 24.3437 27.1339 26.1264C26.6562 27.9091 27.7142 29.7414 29.4968 30.2191ZM30.13 40.7675C29.6523 42.5502 27.8199 43.6081 26.0373 43.1305C24.2546 42.6528 23.1966 40.8204 23.6743 39.0377C24.152 37.2551 25.9844 36.1971 27.767 36.6748C29.5497 37.1525 30.6076 38.9849 30.13 40.7675ZM22.5777 56.0418C24.3603 56.5195 26.1927 55.4616 26.6704 53.6789C27.1481 51.8962 26.0901 50.0638 24.3075 49.5862C22.5248 49.1085 20.6924 50.1664 20.2147 51.9491C19.7371 53.7318 20.795 55.5642 22.5777 56.0418ZM46.5013 31.3159C46.0236 33.0985 44.1912 34.1565 42.4086 33.6788C40.6259 33.2011 39.568 31.3688 40.0456 29.5861C40.5233 27.8034 42.3557 26.7455 44.1384 27.2231C45.921 27.7008 46.979 29.5332 46.5013 31.3159ZM38.949 46.5902C40.7317 47.0678 42.564 46.0099 43.0417 44.2272C43.5194 42.4445 42.4614 40.6122 40.6788 40.1345C38.8961 39.6568 37.0637 40.7148 36.586 42.4974C36.1084 44.2801 37.1663 46.1125 38.949 46.5902ZM39.5821 57.1386C39.1044 58.9213 37.2721 59.9792 35.4894 59.5015C33.7067 59.0239 32.6488 57.1915 33.1264 55.4088C33.6041 53.6261 35.4365 52.5682 37.2192 53.0459C39.0019 53.5235 40.0598 55.3559 39.5821 57.1386ZM55.3188 37.1381C57.1015 37.6158 58.9339 36.5578 59.4116 34.7752C59.8892 32.9925 58.8313 31.1601 57.0486 30.6824C55.2659 30.2048 53.4336 31.2627 52.9559 33.0454C52.4782 34.8281 53.5362 36.6604 55.3188 37.1381ZM72.3233 38.2348C71.8456 40.0175 70.0132 41.0755 68.2306 40.5978C66.4479 40.1201 65.39 38.2877 65.8676 36.5051C66.3453 34.7224 68.1777 33.6644 69.9604 34.1421C71.743 34.6198 72.801 36.4522 72.3233 38.2348Z" fill="#CC0829"/>
</svg>
