<svg width="216" height="24" viewBox="0 0 216 24" fill="none" xmlns="http://www.w3.org/2000/svg">
<g clip-path="url(#clip0_109_441)">
<path d="M12 0.150024C5.46002 0.150024 0.150024 5.46002 0.150024 12C0.150024 18.54 5.46002 23.85 12 23.85C18.54 23.85 23.85 18.54 23.85 12C23.85 5.46002 18.54 0.150024 12 0.150024ZM15.24 7.29002H13.68C12.63 7.29002 12.54 7.77002 12.54 8.52002V9.84002H14.91L14.58 12.54H12.54V19.02H9.84002V12.54H7.68002V9.84002H9.84002V8.28002C9.84002 6.15002 11.13 4.98002 13.05 4.98002C13.95 4.98002 14.97 5.04002 15.21 5.07002V7.29002H15.24Z" fill="#FFEDE6"/>
</g>
<g clip-path="url(#clip1_109_441)">
<path d="M48 9.84002C46.8 9.84002 45.84 10.8 45.84 12C45.84 13.2 46.8 14.16 48 14.16C49.2 14.16 50.16 13.2 50.16 12C50.16 10.8 49.2 9.84002 48 9.84002ZM48 0.150024C41.46 0.150024 36.15 5.46002 36.15 12C36.15 18.54 41.46 23.85 48 23.85C54.54 23.85 59.85 18.54 59.85 12C59.85 5.46002 54.54 0.150024 48 0.150024ZM54.45 14.67C54.42 15.36 54.3 15.84 54.15 16.23C53.97 16.65 53.76 17.01 53.4 17.37C53.04 17.73 52.68 17.94 52.26 18.12C51.84 18.27 51.39 18.39 50.7 18.42C50.01 18.45 49.8 18.45 48.03 18.45C46.26 18.45 46.05 18.45 45.36 18.42C44.67 18.39 44.19 18.27 43.8 18.12C43.38 17.94 43.02 17.73 42.66 17.37C42.3 17.01 42.09 16.65 41.91 16.23C41.76 15.81 41.64 15.36 41.61 14.67C41.58 13.98 41.58 13.77 41.58 12C41.58 10.23 41.58 10.02 41.61 9.33002C41.64 8.64002 41.76 8.16002 41.91 7.77002C42.09 7.35002 42.3 6.99002 42.66 6.63002C43.02 6.27002 43.38 6.06002 43.8 5.88002C44.22 5.73002 44.67 5.61002 45.36 5.58002C46.05 5.55002 46.26 5.55002 48.03 5.55002C49.8 5.55002 50.01 5.55002 50.7 5.58002C51.39 5.61002 51.87 5.73002 52.26 5.88002C52.68 6.06002 53.04 6.27002 53.4 6.63002C53.76 6.99002 53.97 7.35002 54.15 7.77002C54.3 8.19002 54.42 8.64002 54.45 9.33002C54.48 10.02 54.48 10.23 54.48 12C54.48 13.77 54.48 13.98 54.45 14.67ZM53.07 8.19002C52.95 7.89002 52.8 7.68002 52.59 7.44002C52.35 7.20002 52.14 7.08002 51.84 6.96002C51.6 6.87002 51.27 6.78002 50.64 6.75002C49.95 6.72002 49.74 6.72002 48.03 6.72002C46.29 6.72002 46.08 6.72002 45.42 6.75002C44.79 6.78002 44.46 6.87002 44.22 6.96002C43.92 7.08002 43.71 7.23002 43.47 7.44002C43.23 7.68002 43.11 7.89002 42.99 8.19002C42.9 8.43002 42.81 8.76002 42.78 9.39002C42.75 10.08 42.75 10.29 42.75 12C42.75 13.74 42.75 13.92 42.78 14.61C42.81 15.24 42.9 15.57 42.99 15.81C43.11 16.11 43.26 16.32 43.47 16.56C43.71 16.8 43.92 16.92 44.22 17.04C44.46 17.13 44.79 17.22 45.42 17.25C46.11 17.28 46.32 17.28 48.03 17.28C49.77 17.28 49.98 17.28 50.64 17.25C51.27 17.22 51.6 17.13 51.84 17.04C52.14 16.92 52.35 16.77 52.59 16.56C52.83 16.32 52.95 16.11 53.07 15.81C53.16 15.57 53.25 15.24 53.28 14.61C53.31 13.92 53.31 13.71 53.31 12C53.31 10.26 53.31 10.08 53.28 9.39002C53.25 8.76002 53.16 8.40002 53.07 8.19002ZM48 15.33C46.17 15.33 44.67 13.83 44.67 12C44.67 10.17 46.17 8.67002 48 8.67002C49.83 8.67002 51.33 10.17 51.33 12C51.33 13.83 49.83 15.33 48 15.33ZM51.45 9.33002C51.03 9.33002 50.67 8.97002 50.67 8.55002C50.67 8.13002 51.03 7.77002 51.45 7.77002C51.87 7.77002 52.23 8.13002 52.23 8.55002C52.23 8.97002 51.87 9.33002 51.45 9.33002Z" fill="#FFEDE6"/>
</g>
<g clip-path="url(#clip2_109_441)">
<path fill-rule="evenodd" clip-rule="evenodd" d="M84 24C90.6273 24 96 18.6273 96 12C96 5.3727 90.6273 0 84 0C77.3727 0 72 5.3727 72 12C72 18.6273 77.3727 24 84 24ZM90.9162 4.8H88.5252L84.5382 9.3318L81.1329 4.8H76.2L82.074 12.5451L76.512 18.9819H78.903L83.2176 14.0208L86.9865 18.9819H91.8L85.6662 10.818L90.9162 4.8ZM89.0136 17.5689H87.6882L79.0122 6.1605H80.4366L89.0136 17.5689Z" fill="#FFEDE6"/>
</g>
<g clip-path="url(#clip3_109_441)">
<path d="M120 0.150024C113.46 0.150024 108.15 5.46002 108.15 12C108.15 18.54 113.46 23.85 120 23.85C126.54 23.85 131.85 18.54 131.85 12C131.85 5.46002 126.54 0.150024 120 0.150024ZM117.03 16.59H114.69V8.85002H117.03V16.59ZM115.86 8.16002C114.96 8.16002 114.21 7.41002 114.21 6.51002C114.21 5.61002 114.93 4.86002 115.86 4.86002C116.76 4.86002 117.51 5.61002 117.51 6.51002C117.48 7.41002 116.76 8.16002 115.86 8.16002ZM125.94 16.59H123.6V12.12C123.6 12.12 123.51 10.95 122.43 10.95C121.32 10.95 121.02 12.36 121.02 12.36C121.02 12.36 121.02 12.33 120.99 12.24V16.56H118.68V8.85002H120.99V9.78002C121.38 9.33002 122.22 8.85002 123.12 8.85002C124.32 8.85002 125.94 9.60002 125.94 11.91V16.59Z" fill="#FFEDE6"/>
</g>
<g clip-path="url(#clip4_109_441)">
<path d="M156 0.150024C149.46 0.150024 144.15 5.46002 144.15 12C144.15 18.54 149.46 23.85 156 23.85C162.54 23.85 167.85 18.54 167.85 12C167.85 5.46002 162.54 0.150024 156 0.150024ZM161.73 10.11C161.64 10.5 161.61 10.89 161.49 11.25C161.25 12 160.92 12.66 160.5 13.2C159.93 13.98 159.06 14.49 157.95 14.76C156.99 15 156.09 14.64 155.58 14.28C155.4 14.16 155.19 14.01 155.13 13.8H155.1C155.07 14.19 154.89 14.61 154.8 14.94C154.65 15.42 154.62 15.93 154.41 16.41C154.2 16.92 153.93 17.37 153.66 17.82C153.51 18.06 153.12 18.84 152.82 18.84C152.79 18.78 152.76 18.75 152.76 18.66C152.67 18.51 152.73 18.27 152.7 18.09C152.64 17.79 152.58 17.25 152.64 16.92V16.44C152.73 16.11 152.7 15.78 152.82 15.45C153.03 14.76 153.12 14.01 153.33 13.29C153.54 12.6 153.72 11.85 153.87 11.13C153.9 10.98 153.69 10.53 153.66 10.35C153.51 9.81002 153.63 9.06002 153.81 8.67002C154.02 8.16002 154.68 7.38002 155.52 7.59002C156.18 7.74002 156.63 8.43002 156.39 9.30002C156.15 10.2 155.85 11.01 155.64 11.94C155.58 12.18 155.67 12.42 155.73 12.57C155.94 13.08 156.54 13.56 157.35 13.38C158.58 13.08 159.12 12.06 159.48 10.92C159.57 10.62 159.57 10.32 159.66 9.99002C159.81 9.27002 159.75 8.22002 159.51 7.68002C159.12 6.81002 158.43 6.24002 157.44 5.91002C157.17 5.85002 156.9 5.82002 156.63 5.76002C156.18 5.67002 155.34 5.82002 155.01 5.91002C153.66 6.30002 152.82 6.99002 152.28 8.19002C152.1 8.61002 152.01 9.03002 151.98 9.60002C151.98 9.66002 151.95 9.75002 151.95 9.81002C152.04 10.32 152.07 10.68 152.28 11.07C152.4 11.25 152.64 11.4 152.67 11.64C152.7 11.79 152.58 12 152.55 12.09C152.49 12.27 152.52 12.45 152.43 12.6C152.28 12.87 151.86 12.66 151.68 12.54C150.72 11.97 149.94 10.29 150.39 8.67002C150.45 8.43002 150.45 8.19002 150.54 7.98002C151.11 6.60002 151.98 5.73002 153.24 5.01002C153.72 4.74002 154.35 4.59002 154.92 4.44002C155.22 4.41002 155.55 4.35002 155.85 4.32002C158.73 4.29002 160.53 5.37002 161.37 7.29002C161.64 7.98002 161.94 9.15002 161.73 10.11Z" fill="#FFEDE6"/>
</g>
<g clip-path="url(#clip5_109_441)">
<path d="M193.89 12.63C193.5 12.63 193.17 12.93 193.05 13.08V11.16H192.21V17.1H193.05V16.74C193.2 16.92 193.47 17.16 193.89 17.16C194.61 17.16 194.61 16.14 194.61 16.14V13.68C194.61 13.08 194.43 12.63 193.89 12.63ZM193.83 15.99C193.83 15.99 193.83 16.44 193.44 16.44C193.26 16.44 193.14 16.35 193.05 16.26V13.53C193.14 13.44 193.26 13.32 193.44 13.32C193.77 13.32 193.83 13.77 193.83 13.77V15.99ZM190.77 16.26C190.77 16.26 190.5 16.59 190.26 16.59C189.99 16.59 189.99 16.41 189.99 16.41V12.63H189.21V16.65C189.21 16.65 189.27 17.16 189.81 17.16C190.32 17.16 190.8 16.71 190.8 16.71V17.1H191.58V12.63H190.8V16.26H190.77ZM186.18 12H187.17V17.1H188.1V12H189.09V11.16H186.21V12H186.18ZM192 0.150024C185.46 0.150024 180.15 5.46002 180.15 12C180.15 18.54 185.46 23.85 192 23.85C198.54 23.85 203.85 18.54 203.85 12C203.85 5.46002 198.54 0.150024 192 0.150024ZM193.38 5.04002H194.16V8.13002C194.16 8.13002 194.16 8.34002 194.43 8.34002C194.7 8.34002 194.94 8.01002 194.94 8.01002V5.04002H195.72V8.88002H194.94V8.49002C194.94 8.49002 194.49 8.97002 193.95 8.97002C193.44 8.97002 193.35 8.43002 193.35 8.43002V5.04002H193.38ZM190.32 6.12002C190.32 5.52002 190.8 5.04002 191.37 5.04002H191.64C192.21 5.04002 192.69 5.52002 192.69 6.12002V7.86002C192.69 8.46002 192.21 8.94002 191.64 8.94002H191.37C190.8 8.94002 190.32 8.46002 190.32 7.86002V6.12002ZM188.1 3.84002L188.76 5.79002L189.42 3.84002H190.26L189.21 6.81002V8.91002H188.28V6.81002L187.17 3.84002H188.1ZM198.69 16.77C198.69 17.85 197.82 18.72 196.74 18.72C196.74 18.72 194.31 18.84 191.94 18.84C189.51 18.84 187.14 18.72 187.14 18.72C186.06 18.72 185.19 17.85 185.19 16.77C185.19 16.77 184.98 15.51 184.98 14.25C184.98 12.99 185.19 11.73 185.19 11.73C185.19 10.65 186.06 9.78002 187.14 9.78002C187.14 9.78002 189.54 9.66002 191.94 9.66002C194.34 9.66002 196.74 9.78002 196.74 9.78002C197.82 9.78002 198.69 10.65 198.69 11.73C198.69 11.73 198.9 12.99 198.9 14.25C198.87 15.51 198.69 16.77 198.69 16.77ZM196.53 12.63C195.3 12.63 195.3 13.74 195.3 13.74V16.26C195.3 16.26 195.51 17.16 196.53 17.16C197.58 17.16 197.7 16.26 197.7 16.26V15.54H196.86V15.99C196.86 15.99 196.86 16.44 196.47 16.44C196.08 16.44 196.08 15.99 196.08 15.99V15.03H197.7V13.74C197.7 13.74 197.76 12.63 196.53 12.63ZM196.86 14.37H196.08V13.8C196.08 13.8 196.08 13.35 196.47 13.35C196.86 13.35 196.86 13.8 196.86 13.8V14.37ZM191.49 8.34002C191.7 8.34002 191.88 8.16002 191.88 7.95002V6.06002C191.88 5.85002 191.7 5.67002 191.49 5.67002C191.28 5.67002 191.1 5.85002 191.1 6.06002V7.95002C191.1 8.16002 191.28 8.34002 191.49 8.34002Z" fill="#FFEDE6"/>
</g>
<defs>
<clipPath id="clip0_109_441">
<rect width="24" height="24" fill="white"/>
</clipPath>
<clipPath id="clip1_109_441">
<rect width="24" height="24" fill="white" transform="translate(36)"/>
</clipPath>
<clipPath id="clip2_109_441">
<rect width="24" height="24" fill="white" transform="translate(72)"/>
</clipPath>
<clipPath id="clip3_109_441">
<rect width="24" height="24" fill="white" transform="translate(108)"/>
</clipPath>
<clipPath id="clip4_109_441">
<rect width="24" height="24" fill="white" transform="translate(144)"/>
</clipPath>
<clipPath id="clip5_109_441">
<rect width="24" height="24" fill="white" transform="translate(180)"/>
</clipPath>
</defs>
</svg>
